<svg width="37" height="37" viewBox="0 0 37 37" fill="none" xmlns="http://www.w3.org/2000/svg">
<circle opacity="0.2" cx="18.2379" cy="18.7138" r="18.2379" fill="white"/>
<path d="M18 8.99979C23.523 8.99979 28 13.4768 28 18.9998C28 24.5228 23.523 28.9998 18 28.9998C12.477 28.9998 8 24.5228 8 18.9998C8 13.4768 12.477 8.99979 18 8.99979ZM18 12.9998C17.7348 12.9998 17.4804 13.1051 17.2929 13.2927C17.1054 13.4802 17 13.7346 17 13.9998V18.9998C17.0001 19.265 17.1055 19.5193 17.293 19.7068L20.293 22.7068C20.4816 22.8889 20.7342 22.9897 20.9964 22.9875C21.2586 22.9852 21.5094 22.88 21.6948 22.6946C21.8802 22.5092 21.9854 22.2584 21.9877 21.9962C21.99 21.734 21.8892 21.4814 21.707 21.2928L19 18.5858V13.9998C19 13.7346 18.8946 13.4802 18.7071 13.2927C18.5196 13.1051 18.2652 12.9998 18 12.9998Z" fill="white"/>
</svg>
