<svg width="37" height="38" viewBox="0 0 37 38" fill="none" xmlns="http://www.w3.org/2000/svg">
<circle opacity="0.2" cx="18.2379" cy="19.1897" r="18.2379" fill="white"/>
<path d="M18 18.5001C17.337 18.5001 16.7011 18.2367 16.2322 17.7678C15.7634 17.299 15.5 16.6631 15.5 16.0001C15.5 15.337 15.7634 14.7011 16.2322 14.2323C16.7011 13.7635 17.337 13.5001 18 13.5001C18.663 13.5001 19.2989 13.7635 19.7678 14.2323C20.2366 14.7011 20.5 15.337 20.5 16.0001C20.5 16.3284 20.4353 16.6535 20.3097 16.9568C20.1841 17.2601 19.9999 17.5357 19.7678 17.7678C19.5356 18 19.26 18.1841 18.9567 18.3098C18.6534 18.4354 18.3283 18.5001 18 18.5001ZM18 9.00006C16.1435 9.00006 14.363 9.73756 13.0503 11.0503C11.7375 12.3631 11 14.1435 11 16.0001C11 21.2501 18 29.0001 18 29.0001C18 29.0001 25 21.2501 25 16.0001C25 14.1435 24.2625 12.3631 22.9497 11.0503C21.637 9.73756 19.8565 9.00006 18 9.00006Z" fill="white"/>
</svg>
