<svg width="130" height="37" viewBox="0 0 130 37" fill="none" xmlns="http://www.w3.org/2000/svg">
<circle opacity="0.2" cx="18.2379" cy="18.6655" r="18.2379" fill="white"/>
<path d="M20.5637 13.7934C21.1661 13.7934 21.8094 13.9806 21.8094 13.9806L22.1954 11.6879C22.1954 11.6879 21.3766 11.4072 19.4232 11.4072C18.2242 11.4072 17.5282 11.8634 17.0194 12.536C16.5398 13.1735 16.5223 14.197 16.5223 14.8579V16.361H14.9724V18.601H16.5223V26.3796H19.4232V18.601H21.7217L21.8913 16.361H19.4232V14.6122C19.4232 14.0098 19.9613 13.7934 20.5637 13.7934Z" fill="white"/>
<circle opacity="0.2" cx="64.7138" cy="18.6655" r="18.2379" fill="white"/>
<path d="M67.3718 18.5692C67.3718 17.0392 66.1478 15.8151 64.6177 15.8151C63.0877 15.8151 61.8636 17.0392 61.8636 18.5692C61.8636 20.0993 63.0877 21.3233 64.6177 21.3233C66.1478 21.3233 67.3718 20.0993 67.3718 18.5692ZM68.7999 18.5692C68.7999 20.9153 66.9638 22.7514 64.6177 22.7514C62.2716 22.7514 60.4356 20.9153 60.4356 18.5692C60.4356 16.2231 62.2716 14.3871 64.6177 14.3871C66.9638 14.3871 68.7999 16.2231 68.7999 18.5692ZM69.9219 14.1831C69.9219 14.7951 69.5139 15.2031 68.9019 15.2031C68.2899 15.2031 67.8818 14.7951 67.8818 14.1831C67.8818 13.571 68.2899 13.163 68.9019 13.163C69.5139 13.163 69.9219 13.673 69.9219 14.1831ZM64.6177 11.837C63.3937 11.837 60.8436 11.735 59.8235 12.143C59.1095 12.449 58.4975 13.061 58.2935 13.7751C57.8855 14.7951 57.9875 17.3452 57.9875 18.5692C57.9875 19.7933 57.8855 22.3434 58.2935 23.3634C58.4975 24.0774 59.1095 24.6895 59.8235 24.8935C60.8436 25.3015 63.4957 25.1995 64.6177 25.1995C65.7398 25.1995 68.3919 25.3015 69.4119 24.8935C70.1259 24.5875 70.6359 24.0774 70.942 23.3634C71.35 22.2414 71.248 19.6913 71.248 18.5692C71.248 17.4472 71.35 14.7951 70.942 13.7751C70.738 13.061 70.1259 12.449 69.4119 12.245C68.3919 11.735 65.8418 11.837 64.6177 11.837ZM72.778 18.5692V21.9354C72.778 23.1594 72.37 24.3835 71.452 25.4035C70.5339 26.3215 69.3099 26.7296 67.9838 26.7296H61.2516C60.0275 26.7296 58.8035 26.3215 57.7834 25.4035C56.9674 24.4855 56.4574 23.2614 56.4574 21.9354V18.5692V15.2031C56.4574 13.8771 56.9674 12.653 57.7834 11.735C58.8035 10.9189 60.0275 10.4089 61.2516 10.4089H67.9838C69.2079 10.4089 70.4319 10.8169 71.452 11.735C72.268 12.653 72.778 13.8771 72.778 15.2031V18.5692Z" fill="white"/>
<circle opacity="0.2" cx="111.19" cy="18.6655" r="18.2379" fill="white"/>
<path d="M104.241 10.402C102.779 10.402 101.818 11.3321 101.818 12.567C101.818 13.7785 102.747 14.732 104.186 14.732H104.217C105.711 14.732 106.641 13.7707 106.633 12.567C106.601 11.3321 105.703 10.402 104.241 10.402Z" fill="white"/>
<path d="M105.783 15.9479H101.818V28.4298H105.783V15.9479Z" fill="white"/>
<path d="M116.866 15.9479C114.593 15.9479 113.171 17.1671 112.908 18.0269V16.0651H108.451C108.506 17.1046 108.451 28.547 108.451 28.547H112.908V21.8019C112.908 21.4189 112.893 21.0438 113.004 20.778C113.306 20.0277 113.965 19.2461 115.149 19.2461C116.699 19.2461 117.398 20.4029 117.398 22.0911V28.547H121.896V21.6065C121.896 17.7455 119.686 15.9479 116.866 15.9479Z" fill="white"/>
</svg>
