<svg width="37" height="37" viewBox="0 0 37 37" fill="none" xmlns="http://www.w3.org/2000/svg">
<circle opacity="0.2" cx="18.7499" cy="18.5001" r="18.2379" fill="white"/>
<path d="M21.4078 18.404C21.4078 16.8739 20.1838 15.6499 18.6537 15.6499C17.1237 15.6499 15.8996 16.8739 15.8996 18.404C15.8996 19.934 17.1237 21.1581 18.6537 21.1581C20.1838 21.1581 21.4078 19.934 21.4078 18.404ZM22.8359 18.404C22.8359 20.7501 20.9998 22.5861 18.6537 22.5861C16.3076 22.5861 14.4716 20.7501 14.4716 18.404C14.4716 16.0579 16.3076 14.2218 18.6537 14.2218C20.9998 14.2218 22.8359 16.0579 22.8359 18.404ZM23.9579 14.0178C23.9579 14.6298 23.5499 15.0378 22.9379 15.0378C22.3259 15.0378 21.9178 14.6298 21.9178 14.0178C21.9178 13.4058 22.3259 12.9978 22.9379 12.9978C23.5499 12.9978 23.9579 13.5078 23.9579 14.0178ZM18.6537 11.6717C17.4297 11.6717 14.8796 11.5697 13.8595 11.9777C13.1455 12.2837 12.5335 12.8958 12.3295 13.6098C11.9215 14.6298 12.0235 17.1799 12.0235 18.404C12.0235 19.628 11.9215 22.1781 12.3295 23.1982C12.5335 23.9122 13.1455 24.5242 13.8595 24.7282C14.8796 25.1362 17.5317 25.0342 18.6537 25.0342C19.7758 25.0342 22.4279 25.1362 23.4479 24.7282C24.1619 24.4222 24.672 23.9122 24.978 23.1982C25.386 22.0761 25.284 19.526 25.284 18.404C25.284 17.2819 25.386 14.6298 24.978 13.6098C24.774 12.8958 24.1619 12.2837 23.4479 12.0797C22.4279 11.5697 19.8778 11.6717 18.6537 11.6717ZM26.814 18.404V21.7701C26.814 22.9941 26.406 24.2182 25.488 25.2382C24.57 26.1563 23.3459 26.5643 22.0199 26.5643H15.2876C14.0635 26.5643 12.8395 26.1563 11.8195 25.2382C11.0034 24.3202 10.4934 23.0961 10.4934 21.7701V18.404V15.0378C10.4934 13.7118 11.0034 12.4877 11.8195 11.5697C12.8395 10.7537 14.0635 10.2437 15.2876 10.2437H22.0199C23.2439 10.2437 24.4679 10.6517 25.488 11.5697C26.304 12.4877 26.814 13.7118 26.814 15.0378V18.404Z" fill="white"/>
</svg>
