<svg width="38" height="37" viewBox="0 0 38 37" fill="none" xmlns="http://www.w3.org/2000/svg">
<circle opacity="0.2" cx="19.2257" cy="18.5001" r="18.2379" fill="white"/>
<path d="M12.2776 10.2368C10.8155 10.2368 9.854 11.1669 9.854 12.4018C9.854 13.6133 10.7837 14.5668 12.2219 14.5668H12.2537C13.7476 14.5668 14.6773 13.6054 14.6693 12.4018C14.6376 11.1669 13.7397 10.2368 12.2776 10.2368Z" fill="white"/>
<path d="M13.8191 15.7827H9.854V28.2646H13.8191V15.7827Z" fill="white"/>
<path d="M24.9017 15.7827C22.6292 15.7827 21.2068 17.002 20.9446 17.8617V15.9H16.4868C16.5424 16.9395 16.4868 28.3819 16.4868 28.3819H20.9446V21.6368C20.9446 21.2538 20.9287 20.8786 21.0399 20.6129C21.3419 19.8626 22.0014 19.081 23.1854 19.081C24.7349 19.081 25.4341 20.2377 25.4341 21.926V28.3819H29.9316V21.4414C29.9316 17.5804 27.7226 15.7827 24.9017 15.7827Z" fill="white"/>
</svg>
