<svg width="116" height="121" viewBox="0 0 116 121" fill="none" xmlns="http://www.w3.org/2000/svg">
<g opacity="0.3">
<path d="M8.33133 90.8481C8.58154 90.5871 8.58154 90.1639 8.33133 89.9029C8.08112 89.6419 7.67544 89.6419 7.42523 89.9029C7.17502 90.1639 7.17502 90.5871 7.42523 90.8481C7.67544 91.1091 8.08112 91.1091 8.33133 90.8481Z" fill="#D71C34"/>
<path d="M15.5463 98.374C15.8267 98.0815 15.8267 97.6073 15.5463 97.3148C15.2658 97.0223 14.8112 97.0223 14.5308 97.3148C14.2504 97.6073 14.2504 98.0815 14.5308 98.374C14.8112 98.6665 15.2658 98.6665 15.5463 98.374Z" fill="#D71C34"/>
<path d="M22.7065 105.843C22.9869 105.55 22.9869 105.076 22.7065 104.784C22.4261 104.491 21.9715 104.491 21.691 104.784C21.4106 105.076 21.4106 105.55 21.691 105.843C21.9715 106.135 22.4261 106.135 22.7065 105.843Z" fill="#D71C34"/>
<path d="M29.8121 113.255C30.0623 112.994 30.0623 112.571 29.8121 112.31C29.5619 112.049 29.1562 112.049 28.906 112.31C28.6558 112.571 28.6558 112.994 28.906 113.255C29.1562 113.516 29.5619 113.516 29.8121 113.255Z" fill="#D71C34"/>
<path d="M1.22576 68.4985C1.50617 68.206 1.50617 67.7318 1.22576 67.4393C0.94535 67.1468 0.490717 67.1468 0.210307 67.4393C-0.0701024 67.7318 -0.0701024 68.206 0.210307 68.4985C0.490717 68.791 0.945352 68.791 1.22576 68.4985Z" fill="#D71C34"/>
<path d="M8.49927 76.0855C8.84223 75.7278 8.84223 75.1478 8.49927 74.79C8.15631 74.4323 7.60025 74.4323 7.25729 74.79C6.91433 75.1478 6.91433 75.7278 7.25729 76.0855C7.60025 76.4433 8.15631 76.4433 8.49927 76.0855Z" fill="#D71C34"/>
<path d="M15.7728 83.6725C16.1783 83.2495 16.1783 82.5637 15.7728 82.1407C15.3673 81.7177 14.7098 81.7177 14.3043 82.1407C13.8988 82.5637 13.8988 83.2495 14.3043 83.6725C14.7098 84.0955 15.3673 84.0955 15.7728 83.6725Z" fill="#D71C34"/>
<path d="M23.0424 91.2555C23.5083 90.7695 23.5083 89.9815 23.0424 89.4955C22.5765 89.0095 21.8211 89.0095 21.3552 89.4955C20.8893 89.9815 20.8893 90.7695 21.3552 91.2555C21.8211 91.7415 22.5765 91.7415 23.0424 91.2555Z" fill="#D71C34"/>
<path d="M30.2026 98.7244C30.6685 98.2384 30.6685 97.4504 30.2026 96.9644C29.7367 96.4784 28.9813 96.4784 28.5154 96.9644C28.0495 97.4504 28.0495 98.2384 28.5154 98.7244C28.9813 99.2104 29.7367 99.2104 30.2026 98.7244Z" fill="#D71C34"/>
<path d="M37.2535 106.079C37.659 105.656 37.659 104.97 37.2535 104.547C36.848 104.124 36.1905 104.124 35.785 104.547C35.3795 104.97 35.3795 105.656 35.785 106.079C36.1905 106.502 36.848 106.502 37.2535 106.079Z" fill="#D71C34"/>
<path d="M44.3005 113.43C44.6435 113.072 44.6435 112.492 44.3005 112.134C43.9575 111.777 43.4015 111.777 43.0585 112.134C42.7156 112.492 42.7156 113.072 43.0585 113.43C43.4015 113.788 43.9575 113.788 44.3005 113.43Z" fill="#D71C34"/>
<path d="M51.3475 120.781C51.6279 120.488 51.6279 120.014 51.3475 119.721C51.0671 119.429 50.6124 119.429 50.332 119.721C50.0516 120.014 50.0516 120.488 50.332 120.781C50.6124 121.073 51.0671 121.073 51.3475 120.781Z" fill="#D71C34"/>
<path d="M1.22576 53.5607C1.50617 53.2682 1.50617 52.794 1.22576 52.5015C0.945352 52.209 0.490717 52.209 0.210307 52.5015C-0.0701024 52.794 -0.0701024 53.2682 0.210307 53.5607C0.490717 53.8532 0.94535 53.8532 1.22576 53.5607Z" fill="#D71C34"/>
<path d="M8.55394 61.2048C8.9271 60.8155 8.9271 60.1845 8.55394 59.7952C8.18078 59.406 7.57577 59.406 7.20261 59.7952C6.82945 60.1845 6.82945 60.8155 7.20261 61.2048C7.57577 61.594 8.18078 61.594 8.55394 61.2048Z" fill="#D71C34"/>
<path d="M15.8821 68.8489C16.348 68.3629 16.348 67.5749 15.8821 67.0889C15.4162 66.6029 14.6608 66.6029 14.1949 67.0889C13.729 67.5749 13.729 68.3629 14.1949 68.8488C14.6608 69.3348 15.4162 69.3348 15.8821 68.8489Z" fill="#D71C34"/>
<path d="M23.2103 76.4929C23.769 75.9102 23.769 74.9653 23.2103 74.3826C22.6517 73.7999 21.7459 73.7999 21.1872 74.3826C20.6286 74.9653 20.6286 75.9102 21.1872 76.4929C21.7459 77.0756 22.6517 77.0756 23.2103 76.4929Z" fill="#D71C34"/>
<path d="M30.5385 84.137C31.1899 83.4575 31.1899 82.3558 30.5385 81.6763C29.8871 80.9968 28.8309 80.9968 28.1795 81.6763C27.5281 82.3558 27.5281 83.4575 28.1795 84.137C28.8309 84.8165 29.8871 84.8165 30.5385 84.137Z" fill="#D71C34"/>
<path d="M37.6987 91.6058C38.3502 90.9263 38.3502 89.8247 37.6987 89.1452C37.0473 88.4657 35.9912 88.4657 35.3398 89.1452C34.6884 89.8247 34.6884 90.9263 35.3398 91.6058C35.9912 92.2853 37.0473 92.2853 37.6987 91.6058Z" fill="#D71C34"/>
<path d="M44.6911 98.8995C45.2497 98.3168 45.2497 97.372 44.6911 96.7892C44.1324 96.2065 43.2266 96.2065 42.668 96.7892C42.1093 97.372 42.1093 98.3168 42.668 98.8995C43.2266 99.4823 44.1324 99.4823 44.6911 98.8995Z" fill="#D71C34"/>
<path d="M51.6834 106.193C52.1493 105.707 52.1493 104.919 51.6834 104.433C51.2174 103.947 50.4621 103.947 49.9962 104.433C49.5302 104.919 49.5302 105.707 49.9961 106.193C50.4621 106.679 51.2174 106.679 51.6834 106.193Z" fill="#D71C34"/>
<path d="M58.6757 113.487C59.0488 113.098 59.0488 112.467 58.6757 112.077C58.3025 111.688 57.6975 111.688 57.3243 112.077C56.9512 112.467 56.9512 113.098 57.3243 113.487C57.6975 113.876 58.3025 113.876 58.6757 113.487Z" fill="#D71C34"/>
<path d="M65.668 120.781C65.9484 120.488 65.9484 120.014 65.668 119.721C65.3876 119.429 64.9329 119.429 64.6525 119.721C64.3721 120.014 64.3721 120.488 64.6525 120.781C64.9329 121.073 65.3876 121.073 65.668 120.781Z" fill="#D71C34"/>
<path d="M8.49927 46.21C8.84223 45.8523 8.84223 45.2722 8.49927 44.9145C8.15631 44.5567 7.60025 44.5567 7.25729 44.9145C6.91433 45.2722 6.91433 45.8523 7.25729 46.21C7.60025 46.5677 8.15631 46.5677 8.49927 46.21Z" fill="#D71C34"/>
<path d="M15.8821 53.9111C16.348 53.4251 16.348 52.6371 15.8821 52.1512C15.4162 51.6652 14.6608 51.6652 14.1949 52.1512C13.729 52.6371 13.729 53.4251 14.1949 53.9111C14.6608 54.3971 15.4162 54.3971 15.8821 53.9111Z" fill="#D71C34"/>
<path d="M23.2689 61.6163C23.8599 60.9998 23.8599 60.0002 23.2689 59.3837C22.6779 58.7673 21.7197 58.7673 21.1286 59.3837C20.5376 60.0002 20.5376 60.9998 21.1286 61.6163C21.7197 62.2327 22.6779 62.2327 23.2689 61.6163Z" fill="#D71C34"/>
<path d="M30.6518 69.3174C31.3657 68.5726 31.3657 67.3652 30.6518 66.6204C29.9378 65.8757 28.7802 65.8757 28.0663 66.6204C27.3523 67.3652 27.3523 68.5726 28.0663 69.3174C28.7802 70.0621 29.9378 70.0621 30.6518 69.3174Z" fill="#D71C34"/>
<path d="M38.0346 77.0184C38.8715 76.1454 38.8715 74.7301 38.0346 73.8571C37.1977 72.9841 35.8408 72.9841 35.0039 73.8571C34.167 74.7301 34.167 76.1454 35.0039 77.0184C35.8408 77.8914 37.1977 77.8914 38.0346 77.0184Z" fill="#D71C34"/>
<path d="M45.1949 84.4873C46.0318 83.6143 46.0318 82.1989 45.1949 81.3259C44.358 80.453 43.0011 80.453 42.1641 81.326C41.3272 82.1989 41.3272 83.6143 42.1641 84.4873C43.0011 85.3603 44.358 85.3603 45.1949 84.4873Z" fill="#D71C34"/>
<path d="M52.1325 91.724C52.8465 90.9792 52.8465 89.7718 52.1325 89.027C51.4185 88.2823 50.261 88.2823 49.547 89.027C48.833 89.7718 48.833 90.9792 49.547 91.724C50.261 92.4687 51.4185 92.4687 52.1325 91.724Z" fill="#D71C34"/>
<path d="M59.0701 98.9606C59.6611 98.3442 59.6611 97.3446 59.0701 96.7281C58.4791 96.1116 57.5209 96.1116 56.9299 96.7281C56.3389 97.3446 56.3389 98.3442 56.9299 98.9606C57.5209 99.5771 58.4791 99.5771 59.0701 98.9606Z" fill="#D71C34"/>
<path d="M66.0038 106.193C66.4698 105.707 66.4698 104.919 66.0039 104.433C65.5379 103.947 64.7826 103.947 64.3166 104.433C63.8507 104.919 63.8507 105.707 64.3166 106.193C64.7826 106.679 65.5379 106.679 66.0038 106.193Z" fill="#D71C34"/>
<path d="M72.9415 113.43C73.2844 113.072 73.2844 112.492 72.9415 112.134C72.5985 111.777 72.0425 111.777 71.6995 112.134C71.3565 112.492 71.3565 113.072 71.6995 113.43C72.0425 113.788 72.5985 113.788 72.9415 113.43Z" fill="#D71C34"/>
<path d="M8.33133 31.0971C8.58154 30.8361 8.58154 30.4129 8.33133 30.1519C8.08112 29.8909 7.67544 29.8909 7.42523 30.1519C7.17502 30.4129 7.17502 30.8361 7.42523 31.0971C7.67544 31.3581 8.08112 31.3581 8.33133 31.0971Z" fill="#D71C34"/>
<path d="M15.7728 38.8593C16.1783 38.4363 16.1783 37.7505 15.7728 37.3275C15.3673 36.9045 14.7098 36.9045 14.3043 37.3275C13.8988 37.7505 13.8988 38.4363 14.3043 38.8593C14.7098 39.2823 15.3673 39.2823 15.7728 38.8593Z" fill="#D71C34"/>
<path d="M23.2103 46.6174C23.769 46.0347 23.769 45.0898 23.2103 44.5071C22.6517 43.9244 21.7459 43.9244 21.1872 44.5071C20.6286 45.0898 20.6286 46.0346 21.1872 46.6174C21.7459 47.2001 22.6517 47.2001 23.2103 46.6174Z" fill="#D71C34"/>
<path d="M30.6518 54.3796C31.3657 53.6349 31.3657 52.4274 30.6518 51.6827C29.9378 50.9379 28.7802 50.9379 28.0663 51.6827C27.3523 52.4274 27.3523 53.6348 28.0663 54.3796C28.7802 55.1243 29.9378 55.1243 30.6518 54.3796Z" fill="#D71C34"/>
<path d="M38.0932 62.1418C38.9625 61.2351 38.9625 59.7649 38.0932 58.8582C37.2239 57.9515 35.8146 57.9515 34.9453 58.8582C34.076 59.7649 34.076 61.2351 34.9453 62.1418C35.8146 63.0485 37.2239 63.0485 38.0932 62.1418Z" fill="#D71C34"/>
<path d="M45.5308 69.8999C46.5532 68.8334 46.5532 67.1043 45.5308 66.0378C44.5083 64.9714 42.8507 64.9713 41.8283 66.0378C40.8058 67.1043 40.8058 68.8334 41.8283 69.8999C42.8507 70.9664 44.5083 70.9664 45.5308 69.8999Z" fill="#D71C34"/>
<path d="M52.691 77.3688C53.7134 76.3023 53.7134 74.5732 52.691 73.5067C51.6686 72.4402 50.0109 72.4402 48.9885 73.5067C47.9661 74.5732 47.9661 76.3023 48.9885 77.3688C50.0109 78.4353 51.6686 78.4353 52.691 77.3688Z" fill="#D71C34"/>
<path d="M59.574 84.5484C60.4432 83.6417 60.4432 82.1716 59.574 81.2648C58.7047 80.3581 57.2953 80.3581 56.4261 81.2648C55.5568 82.1716 55.5568 83.6417 56.4261 84.5484C57.2953 85.4552 58.7047 85.4552 59.574 84.5484Z" fill="#D71C34"/>
<path d="M66.453 91.724C67.167 90.9792 67.167 89.7718 66.453 89.027C65.739 88.2823 64.5815 88.2823 63.8675 89.027C63.1535 89.7718 63.1535 90.9792 63.8675 91.724C64.5815 92.4687 65.739 92.4687 66.453 91.724Z" fill="#D71C34"/>
<path d="M73.332 98.8995C73.8907 98.3168 73.8907 97.372 73.332 96.7892C72.7734 96.2065 71.8676 96.2065 71.3089 96.7892C70.7503 97.372 70.7503 98.3168 71.3089 98.8995C71.8676 99.4823 72.7734 99.4823 73.332 98.8995Z" fill="#D71C34"/>
<path d="M80.215 106.079C80.6205 105.656 80.6205 104.97 80.215 104.547C79.8095 104.124 79.152 104.124 78.7465 104.547C78.341 104.97 78.341 105.656 78.7465 106.079C79.152 106.502 79.8095 106.502 80.215 106.079Z" fill="#D71C34"/>
<path d="M87.094 113.255C87.3442 112.994 87.3442 112.571 87.094 112.31C86.8438 112.049 86.4381 112.049 86.1879 112.31C85.9377 112.571 85.9377 112.994 86.1879 113.255C86.4381 113.516 86.8438 113.516 87.094 113.255Z" fill="#D71C34"/>
<path d="M15.5463 23.6852C15.8267 23.3927 15.8267 22.9185 15.5463 22.626C15.2658 22.3335 14.8112 22.3335 14.5308 22.626C14.2504 22.9185 14.2504 23.3927 14.5308 23.6852C14.8112 23.9777 15.2658 23.9777 15.5463 23.6852Z" fill="#D71C34"/>
<path d="M23.0424 31.5045C23.5083 31.0185 23.5083 30.2305 23.0424 29.7445C22.5765 29.2585 21.8211 29.2585 21.3552 29.7445C20.8893 30.2305 20.8893 31.0185 21.3552 31.5045C21.8211 31.9905 22.5765 31.9905 23.0424 31.5045Z" fill="#D71C34"/>
<path d="M30.5385 39.3237C31.1899 38.6442 31.1899 37.5425 30.5385 36.863C29.8871 36.1836 28.8309 36.1835 28.1795 36.863C27.5281 37.5425 27.5281 38.6442 28.1795 39.3237C28.8309 40.0032 29.8871 40.0032 30.5385 39.3237Z" fill="#D71C34"/>
<path d="M38.0346 47.1429C38.8715 46.2699 38.8715 44.8546 38.0346 43.9816C37.1977 43.1086 35.8408 43.1086 35.0039 43.9816C34.167 44.8546 34.167 46.2699 35.0039 47.1429C35.8408 48.0159 37.1977 48.0159 38.0346 47.1429Z" fill="#D71C34"/>
<path d="M45.5308 54.9622C46.5532 53.8957 46.5532 52.1666 45.5308 51.1001C44.5083 50.0336 42.8507 50.0336 41.8283 51.1001C40.8058 52.1666 40.8058 53.8957 41.8283 54.9622C42.8507 56.0287 44.5083 56.0287 45.5308 54.9622Z" fill="#D71C34"/>
<path d="M53.0269 62.7814C54.2348 61.5214 54.2348 59.4786 53.0269 58.2186C51.819 56.9586 49.8605 56.9586 48.6526 58.2186C47.4447 59.4786 47.4447 61.5214 48.6526 62.7814C49.8605 64.0414 51.819 64.0414 53.0269 62.7814Z" fill="#D71C34"/>
<path d="M60.1871 70.2503C61.3951 68.9903 61.395 66.9475 60.1871 65.6875C58.9792 64.4275 57.0208 64.4275 55.8129 65.6875C54.6049 66.9475 54.6049 68.9903 55.8129 70.2503C57.0208 71.5103 58.9792 71.5103 60.1871 70.2503Z" fill="#D71C34"/>
<path d="M67.0115 77.3688C68.0339 76.3023 68.0339 74.5732 67.0115 73.5067C65.9891 72.4402 64.3314 72.4402 63.309 73.5067C62.2866 74.5732 62.2866 76.3023 63.309 77.3688C64.3314 78.4353 65.9891 78.4353 67.0115 77.3688Z" fill="#D71C34"/>
<path d="M73.8359 84.4873C74.6728 83.6143 74.6728 82.1989 73.8359 81.3259C72.9989 80.453 71.642 80.453 70.8051 81.326C69.9682 82.1989 69.9682 83.6143 70.8051 84.4873C71.642 85.3603 72.9989 85.3603 73.8359 84.4873Z" fill="#D71C34"/>
<path d="M80.6602 91.6058C81.3116 90.9263 81.3116 89.8247 80.6602 89.1452C80.0088 88.4657 78.9527 88.4657 78.3013 89.1452C77.6498 89.8247 77.6498 90.9264 78.3013 91.6058C78.9527 92.2853 80.0088 92.2853 80.6602 91.6058Z" fill="#D71C34"/>
<path d="M87.4846 98.7244C87.9505 98.2384 87.9505 97.4504 87.4846 96.9644C87.0187 96.4784 86.2633 96.4784 85.7974 96.9644C85.3315 97.4504 85.3315 98.2384 85.7974 98.7244C86.2633 99.2104 87.0187 99.2104 87.4846 98.7244Z" fill="#D71C34"/>
<path d="M94.309 105.843C94.5894 105.55 94.5894 105.076 94.3089 104.784C94.0285 104.491 93.5739 104.491 93.2935 104.784C93.0131 105.076 93.0131 105.55 93.2935 105.843C93.5739 106.135 94.0285 106.135 94.309 105.843Z" fill="#D71C34"/>
<path d="M22.7065 16.2164C22.9869 15.9239 22.9869 15.4496 22.7065 15.1571C22.4261 14.8646 21.9715 14.8646 21.691 15.1571C21.4106 15.4496 21.4106 15.9239 21.691 16.2164C21.9715 16.5088 22.4261 16.5088 22.7065 16.2164Z" fill="#D71C34"/>
<path d="M30.2026 24.0356C30.6685 23.5496 30.6685 22.7616 30.2026 22.2756C29.7367 21.7897 28.9813 21.7897 28.5154 22.2756C28.0495 22.7616 28.0495 23.5496 28.5154 24.0356C28.9813 24.5216 29.7367 24.5216 30.2026 24.0356Z" fill="#D71C34"/>
<path d="M37.6987 31.8548C38.3502 31.1753 38.3502 30.0737 37.6987 29.3942C37.0473 28.7147 35.9912 28.7147 35.3398 29.3942C34.6884 30.0737 34.6884 31.1753 35.3398 31.8548C35.9912 32.5343 37.0473 32.5343 37.6987 31.8548Z" fill="#D71C34"/>
<path d="M45.1949 39.6741C46.0318 38.8011 46.0318 37.3857 45.1949 36.5127C44.358 35.6397 43.0011 35.6397 42.1641 36.5127C41.3272 37.3857 41.3272 38.8011 42.1641 39.6741C43.0011 40.547 44.358 40.547 45.1949 39.6741Z" fill="#D71C34"/>
<path d="M52.691 47.4933C53.7134 46.4268 53.7134 44.6977 52.691 43.6312C51.6686 42.5647 50.0109 42.5647 48.9885 43.6312C47.9661 44.6977 47.9661 46.4268 48.9885 47.4933C50.0109 48.5598 51.6686 48.5598 52.691 47.4933Z" fill="#D71C34"/>
<path d="M60.1871 55.3125C61.395 54.0525 61.3951 52.0097 60.1871 50.7497C58.9792 49.4897 57.0208 49.4897 55.8129 50.7497C54.6049 52.0097 54.6049 54.0525 55.8129 55.3125C57.0208 56.5725 58.9792 56.5725 60.1871 55.3125Z" fill="#D71C34"/>
<path d="M67.3474 62.7814C68.5553 61.5214 68.5553 59.4786 67.3474 58.2186C66.1395 56.9586 64.181 56.9586 62.9731 58.2186C61.7652 59.4786 61.7652 61.5214 62.9731 62.7814C64.181 64.0414 66.1395 64.0414 67.3474 62.7814Z" fill="#D71C34"/>
<path d="M74.1717 69.8999C75.1942 68.8334 75.1942 67.1043 74.1717 66.0378C73.1493 64.9713 71.4917 64.9713 70.4692 66.0378C69.4468 67.1043 69.4468 68.8334 70.4692 69.8999C71.4917 70.9664 73.1493 70.9664 74.1717 69.8999Z" fill="#D71C34"/>
<path d="M80.9961 77.0184C81.833 76.1454 81.833 74.7301 80.9961 73.8571C80.1592 72.9841 78.8023 72.9841 77.9654 73.8571C77.1285 74.7301 77.1285 76.1454 77.9654 77.0184C78.8023 77.8914 80.1592 77.8914 80.9961 77.0184Z" fill="#D71C34"/>
<path d="M87.8205 84.137C88.4719 83.4575 88.4719 82.3558 87.8205 81.6763C87.1691 80.9968 86.1129 80.9968 85.4615 81.6763C84.8101 82.3558 84.8101 83.4575 85.4615 84.137C86.1129 84.8165 87.1691 84.8165 87.8205 84.137Z" fill="#D71C34"/>
<path d="M94.6448 91.2555C95.1107 90.7695 95.1107 89.9815 94.6448 89.4955C94.1789 89.0095 93.4235 89.0095 92.9576 89.4955C92.4917 89.9815 92.4917 90.7695 92.9576 91.2555C93.4235 91.7415 94.1789 91.7415 94.6448 91.2555Z" fill="#D71C34"/>
<path d="M101.469 98.374C101.75 98.0815 101.75 97.6073 101.469 97.3148C101.189 97.0223 100.734 97.0223 100.454 97.3148C100.173 97.6073 100.173 98.0815 100.454 98.374C100.734 98.6665 101.189 98.6665 101.469 98.374Z" fill="#D71C34"/>
<path d="M29.8121 8.69044C30.0623 8.42944 30.0623 8.00628 29.8121 7.74529C29.5619 7.48429 29.1562 7.48429 28.906 7.74529C28.6558 8.00628 28.6558 8.42944 28.906 8.69044C29.1562 8.95144 29.5619 8.95144 29.8121 8.69044Z" fill="#D71C34"/>
<path d="M37.2535 16.4526C37.659 16.0296 37.659 15.3438 37.2535 14.9208C36.848 14.4978 36.1905 14.4978 35.785 14.9208C35.3795 15.3438 35.3795 16.0296 35.785 16.4526C36.1905 16.8756 36.848 16.8756 37.2535 16.4526Z" fill="#D71C34"/>
<path d="M44.6911 24.2108C45.2497 23.628 45.2497 22.6832 44.6911 22.1005C44.1324 21.5177 43.2266 21.5177 42.668 22.1005C42.1093 22.6832 42.1093 23.628 42.668 24.2108C43.2266 24.7935 44.1324 24.7935 44.6911 24.2108Z" fill="#D71C34"/>
<path d="M52.1325 31.973C52.8465 31.2282 52.8465 30.0208 52.1325 29.276C51.4185 28.5313 50.261 28.5313 49.547 29.276C48.833 30.0208 48.833 31.2282 49.547 31.973C50.261 32.7177 51.4185 32.7177 52.1325 31.973Z" fill="#D71C34"/>
<path d="M59.574 39.7352C60.4432 38.8284 60.4432 37.3583 59.574 36.4516C58.7047 35.5448 57.2953 35.5448 56.4261 36.4516C55.5568 37.3583 55.5568 38.8284 56.4261 39.7352C57.2953 40.6419 58.7047 40.6419 59.574 39.7352Z" fill="#D71C34"/>
<path d="M67.0115 47.4933C68.0339 46.4268 68.0339 44.6977 67.0115 43.6312C65.9891 42.5647 64.3314 42.5647 63.309 43.6312C62.2866 44.6977 62.2866 46.4268 63.309 47.4933C64.3314 48.5598 65.9891 48.5598 67.0115 47.4933Z" fill="#D71C34"/>
<path d="M74.1717 54.9622C75.1942 53.8957 75.1942 52.1666 74.1717 51.1001C73.1493 50.0336 71.4917 50.0336 70.4692 51.1001C69.4468 52.1666 69.4468 53.8957 70.4692 54.9622C71.4917 56.0287 73.1493 56.0287 74.1717 54.9622Z" fill="#D71C34"/>
<path d="M81.0547 62.1418C81.924 61.2351 81.924 59.7649 81.0547 58.8582C80.1854 57.9515 78.7761 57.9515 77.9068 58.8582C77.0375 59.7649 77.0375 61.2351 77.9068 62.1418C78.7761 63.0485 80.1854 63.0485 81.0547 62.1418Z" fill="#D71C34"/>
<path d="M87.9337 69.3174C88.6477 68.5726 88.6477 67.3652 87.9337 66.6204C87.2198 65.8757 86.0622 65.8757 85.3482 66.6204C84.6343 67.3652 84.6343 68.5726 85.3482 69.3174C86.0622 70.0621 87.2198 70.0621 87.9337 69.3174Z" fill="#D71C34"/>
<path d="M94.8128 76.4929C95.3714 75.9102 95.3714 74.9654 94.8128 74.3826C94.2541 73.7999 93.3483 73.7999 92.7897 74.3826C92.231 74.9653 92.231 75.9102 92.7897 76.4929C93.3484 77.0756 94.2541 77.0756 94.8128 76.4929Z" fill="#D71C34"/>
<path d="M101.696 83.6725C102.101 83.2495 102.101 82.5637 101.696 82.1407C101.29 81.7177 100.633 81.7177 100.227 82.1407C99.8217 82.5637 99.8217 83.2495 100.227 83.6725C100.633 84.0955 101.29 84.0955 101.696 83.6725Z" fill="#D71C34"/>
<path d="M108.575 90.8481C108.825 90.5871 108.825 90.1639 108.575 89.9029C108.325 89.6419 107.919 89.6419 107.669 89.9029C107.418 90.1639 107.418 90.5871 107.669 90.8481C107.919 91.1091 108.325 91.1091 108.575 90.8481Z" fill="#D71C34"/>
<path d="M44.3005 8.86562C44.6435 8.50787 44.6435 7.92785 44.3005 7.5701C43.9575 7.21236 43.4015 7.21236 43.0585 7.57011C42.7156 7.92785 42.7156 8.50787 43.0585 8.86562C43.4015 9.22336 43.9575 9.22336 44.3005 8.86562Z" fill="#D71C34"/>
<path d="M51.6834 16.5667C52.1493 16.0807 52.1493 15.2928 51.6834 14.8068C51.2174 14.3208 50.4621 14.3208 49.9961 14.8068C49.5302 15.2928 49.5302 16.0807 49.9962 16.5667C50.4621 17.0527 51.2174 17.0527 51.6834 16.5667Z" fill="#D71C34"/>
<path d="M59.0701 24.2719C59.6611 23.6554 59.6611 22.6558 59.0701 22.0394C58.4791 21.4229 57.5209 21.4229 56.9299 22.0394C56.3389 22.6559 56.3389 23.6554 56.9299 24.2719C57.5209 24.8884 58.4791 24.8884 59.0701 24.2719Z" fill="#D71C34"/>
<path d="M66.453 31.973C67.167 31.2282 67.167 30.0208 66.453 29.276C65.739 28.5313 64.5815 28.5313 63.8675 29.276C63.1535 30.0208 63.1535 31.2282 63.8675 31.973C64.5815 32.7177 65.739 32.7177 66.453 31.973Z" fill="#D71C34"/>
<path d="M73.8359 39.6741C74.6728 38.8011 74.6728 37.3857 73.8359 36.5127C72.9989 35.6397 71.642 35.6397 70.8051 36.5127C69.9682 37.3857 69.9682 38.8011 70.8051 39.6741C71.642 40.547 72.9989 40.547 73.8359 39.6741Z" fill="#D71C34"/>
<path d="M80.9961 47.1429C81.833 46.2699 81.833 44.8546 80.9961 43.9816C80.1592 43.1086 78.8023 43.1086 77.9654 43.9816C77.1285 44.8546 77.1285 46.2699 77.9654 47.1429C78.8023 48.0159 80.1592 48.0159 80.9961 47.1429Z" fill="#D71C34"/>
<path d="M87.9337 54.3796C88.6477 53.6349 88.6477 52.4274 87.9337 51.6827C87.2198 50.9379 86.0622 50.9379 85.3482 51.6827C84.6343 52.4274 84.6343 53.6349 85.3482 54.3796C86.0622 55.1243 87.2198 55.1243 87.9337 54.3796Z" fill="#D71C34"/>
<path d="M94.8714 61.6163C95.4624 60.9998 95.4624 60.0002 94.8714 59.3837C94.2803 58.7673 93.3221 58.7673 92.7311 59.3838C92.1401 60.0002 92.1401 60.9998 92.7311 61.6163C93.3221 62.2327 94.2803 62.2327 94.8714 61.6163Z" fill="#D71C34"/>
<path d="M101.805 68.8488C102.271 68.3629 102.271 67.5749 101.805 67.0889C101.339 66.6029 100.584 66.6029 100.118 67.0889C99.652 67.5749 99.652 68.3629 100.118 68.8488C100.584 69.3348 101.339 69.3348 101.805 68.8488Z" fill="#D71C34"/>
<path d="M108.743 76.0855C109.086 75.7278 109.086 75.1478 108.743 74.79C108.4 74.4323 107.844 74.4323 107.501 74.79C107.158 75.1478 107.158 75.7278 107.501 76.0855C107.844 76.4433 108.4 76.4433 108.743 76.0855Z" fill="#D71C34"/>
<path d="M51.3475 1.27859C51.6279 0.986098 51.6279 0.511873 51.3475 0.219377C51.0671 -0.0731194 50.6124 -0.0731241 50.332 0.219372C50.0516 0.511868 50.0516 0.986099 50.332 1.2786C50.6124 1.57109 51.0671 1.57109 51.3475 1.27859Z" fill="#D71C34"/>
<path d="M58.6757 8.92265C59.0488 8.5334 59.0488 7.90232 58.6757 7.51307C58.3025 7.12383 57.6975 7.12382 57.3243 7.51307C56.9512 7.90231 56.9512 8.53341 57.3243 8.92265C57.6975 9.3119 58.3025 9.31189 58.6757 8.92265Z" fill="#D71C34"/>
<path d="M66.0039 16.5667C66.4698 16.0807 66.4698 15.2928 66.0038 14.8068C65.5379 14.3208 64.7826 14.3208 64.3166 14.8068C63.8507 15.2928 63.8507 16.0807 64.3166 16.5667C64.7826 17.0527 65.5379 17.0527 66.0039 16.5667Z" fill="#D71C34"/>
<path d="M73.332 24.2108C73.8907 23.628 73.8907 22.6832 73.332 22.1005C72.7734 21.5177 71.8676 21.5177 71.3089 22.1005C70.7503 22.6832 70.7503 23.628 71.3089 24.2108C71.8676 24.7935 72.7734 24.7935 73.332 24.2108Z" fill="#D71C34"/>
<path d="M80.6602 31.8548C81.3116 31.1753 81.3116 30.0737 80.6602 29.3942C80.0088 28.7147 78.9527 28.7147 78.3013 29.3942C77.6498 30.0737 77.6498 31.1753 78.3013 31.8548C78.9527 32.5343 80.0088 32.5343 80.6602 31.8548Z" fill="#D71C34"/>
<path d="M87.8205 39.3237C88.4719 38.6442 88.4719 37.5425 87.8205 36.863C87.1691 36.1836 86.1129 36.1835 85.4615 36.863C84.8101 37.5425 84.8101 38.6442 85.4615 39.3237C86.1129 40.0032 87.1691 40.0032 87.8205 39.3237Z" fill="#D71C34"/>
<path d="M94.8128 46.6174C95.3714 46.0346 95.3714 45.0898 94.8128 44.5071C94.2541 43.9244 93.3484 43.9244 92.7897 44.5071C92.231 45.0898 92.231 46.0347 92.7897 46.6174C93.3483 47.2001 94.2541 47.2001 94.8128 46.6174Z" fill="#D71C34"/>
<path d="M101.805 53.9111C102.271 53.4251 102.271 52.6371 101.805 52.1512C101.339 51.6652 100.584 51.6652 100.118 52.1512C99.652 52.6371 99.652 53.4251 100.118 53.9111C100.584 54.3971 101.339 54.3971 101.805 53.9111Z" fill="#D71C34"/>
<path d="M108.797 61.2048C109.171 60.8155 109.171 60.1845 108.797 59.7952C108.424 59.406 107.819 59.406 107.446 59.7952C107.073 60.1844 107.073 60.8155 107.446 61.2048C107.819 61.594 108.424 61.594 108.797 61.2048Z" fill="#D71C34"/>
<path d="M115.79 68.4985C116.07 68.206 116.07 67.7318 115.79 67.4393C115.509 67.1468 115.055 67.1468 114.774 67.4393C114.494 67.7318 114.494 68.206 114.774 68.4985C115.055 68.791 115.509 68.791 115.79 68.4985Z" fill="#D71C34"/>
<path d="M65.668 1.2786C65.9484 0.9861 65.9484 0.511868 65.668 0.219371C65.3876 -0.0731248 64.9329 -0.0731233 64.6525 0.219373C64.3721 0.511869 64.3721 0.9861 64.6525 1.2786C64.9329 1.57109 65.3876 1.57109 65.668 1.2786Z" fill="#D71C34"/>
<path d="M72.9415 8.86562C73.2844 8.50787 73.2844 7.92785 72.9415 7.57011C72.5985 7.21236 72.0425 7.21236 71.6995 7.57011C71.3565 7.92785 71.3565 8.50787 71.6995 8.86561C72.0425 9.22336 72.5985 9.22336 72.9415 8.86562Z" fill="#D71C34"/>
<path d="M80.215 16.4526C80.6205 16.0296 80.6205 15.3438 80.215 14.9208C79.8095 14.4978 79.152 14.4978 78.7465 14.9208C78.341 15.3438 78.341 16.0296 78.7465 16.4526C79.152 16.8756 79.8095 16.8756 80.215 16.4526Z" fill="#D71C34"/>
<path d="M87.4846 24.0356C87.9505 23.5496 87.9505 22.7616 87.4846 22.2756C87.0187 21.7896 86.2633 21.7896 85.7974 22.2756C85.3315 22.7616 85.3315 23.5496 85.7974 24.0356C86.2633 24.5216 87.0187 24.5216 87.4846 24.0356Z" fill="#D71C34"/>
<path d="M94.6448 31.5045C95.1107 31.0185 95.1107 30.2305 94.6448 29.7445C94.1789 29.2585 93.4235 29.2585 92.9576 29.7445C92.4917 30.2305 92.4917 31.0185 92.9576 31.5045C93.4235 31.9905 94.1789 31.9905 94.6448 31.5045Z" fill="#D71C34"/>
<path d="M101.696 38.8593C102.101 38.4363 102.101 37.7505 101.696 37.3275C101.29 36.9045 100.633 36.9045 100.227 37.3275C99.8217 37.7505 99.8217 38.4363 100.227 38.8593C100.633 39.2823 101.29 39.2823 101.696 38.8593Z" fill="#D71C34"/>
<path d="M108.743 46.21C109.086 45.8523 109.086 45.2722 108.743 44.9145C108.4 44.5567 107.844 44.5567 107.501 44.9145C107.158 45.2722 107.158 45.8523 107.501 46.21C107.844 46.5677 108.4 46.5677 108.743 46.21Z" fill="#D71C34"/>
<path d="M115.79 53.5607C116.07 53.2682 116.07 52.794 115.79 52.5015C115.509 52.209 115.055 52.209 114.774 52.5015C114.494 52.794 114.494 53.2682 114.774 53.5607C115.055 53.8532 115.509 53.8532 115.79 53.5607Z" fill="#D71C34"/>
<path d="M87.094 8.69044C87.3442 8.42945 87.3442 8.00628 87.094 7.74529C86.8438 7.48429 86.4381 7.48429 86.1879 7.74529C85.9377 8.00628 85.9377 8.42944 86.1879 8.69044C86.4381 8.95143 86.8438 8.95144 87.094 8.69044Z" fill="#D71C34"/>
<path d="M94.3089 16.2164C94.5894 15.9239 94.5894 15.4496 94.309 15.1571C94.0285 14.8646 93.5739 14.8646 93.2935 15.1571C93.0131 15.4496 93.0131 15.9239 93.2935 16.2163C93.5739 16.5088 94.0285 16.5088 94.3089 16.2164Z" fill="#D71C34"/>
<path d="M101.469 23.6852C101.75 23.3927 101.75 22.9185 101.469 22.626C101.189 22.3335 100.734 22.3335 100.454 22.626C100.173 22.9185 100.173 23.3927 100.454 23.6852C100.734 23.9777 101.189 23.9777 101.469 23.6852Z" fill="#D71C34"/>
<path d="M108.575 31.0971C108.825 30.8361 108.825 30.4129 108.575 30.1519C108.325 29.8909 107.919 29.8909 107.669 30.1519C107.418 30.4129 107.418 30.8361 107.669 31.0971C107.919 31.3581 108.325 31.3581 108.575 31.0971Z" fill="#D71C34"/>
</g>
</svg>
