<svg width="76" height="219" viewBox="0 0 76 219" fill="none" xmlns="http://www.w3.org/2000/svg">
<path d="M15.0826 164.428C15.5355 163.955 15.5355 163.189 15.0826 162.717C14.6296 162.244 13.8952 162.244 13.4422 162.717C12.9893 163.189 12.9893 163.955 13.4422 164.428C13.8952 164.9 14.6296 164.9 15.0826 164.428Z" fill="#D71C34"/>
<path d="M28.1441 178.049C28.6517 177.519 28.6517 176.661 28.1441 176.132C27.6364 175.602 26.8134 175.602 26.3058 176.132C25.7981 176.661 25.7981 177.519 26.3058 178.049C26.8134 178.578 27.6364 178.578 28.1441 178.049Z" fill="#D71C34"/>
<path d="M41.1066 191.567C41.6142 191.037 41.6142 190.179 41.1066 189.65C40.5989 189.12 39.7759 189.12 39.2683 189.65C38.7606 190.179 38.7606 191.037 39.2683 191.567C39.7759 192.096 40.599 192.096 41.1066 191.567Z" fill="#D71C34"/>
<path d="M53.9701 204.982C54.4231 204.509 54.4231 203.743 53.9701 203.271C53.5171 202.799 52.7827 202.799 52.3298 203.271C51.8768 203.743 51.8768 204.509 52.3298 204.982C52.7827 205.454 53.5171 205.454 53.9701 204.982Z" fill="#D71C34"/>
<path d="M2.21905 123.977C2.72669 123.447 2.72669 122.589 2.21905 122.06C1.71141 121.53 0.888367 121.53 0.380729 122.06C-0.12691 122.589 -0.12691 123.447 0.380729 123.977C0.888367 124.506 1.71141 124.506 2.21905 123.977Z" fill="#D71C34"/>
<path d="M15.3866 137.708C16.0075 137.061 16.0075 136.011 15.3866 135.364C14.7657 134.716 13.7591 134.716 13.1382 135.364C12.5173 136.011 12.5173 137.061 13.1382 137.708C13.7591 138.356 14.7657 138.356 15.3866 137.708Z" fill="#D71C34"/>
<path d="M28.5542 151.44C29.2883 150.675 29.2883 149.434 28.5542 148.668C27.82 147.902 26.6298 147.902 25.8957 148.668C25.1615 149.434 25.1615 150.675 25.8957 151.44C26.6298 152.206 27.82 152.206 28.5542 151.44Z" fill="#D71C34"/>
<path d="M41.7147 165.165C42.5581 164.285 42.5581 162.859 41.7147 161.98C40.8712 161.1 39.5037 161.1 38.6602 161.98C37.8167 162.859 37.8168 164.285 38.6602 165.165C39.5037 166.044 40.8712 166.044 41.7147 165.165Z" fill="#D71C34"/>
<path d="M54.6772 178.683C55.5206 177.803 55.5206 176.377 54.6772 175.498C53.8337 174.618 52.4662 174.618 51.6227 175.498C50.7793 176.377 50.7793 177.803 51.6227 178.683C52.4662 179.563 53.8337 179.563 54.6772 178.683Z" fill="#D71C34"/>
<path d="M67.4417 191.995C68.1758 191.229 68.1758 189.988 67.4417 189.222C66.7076 188.457 65.5173 188.457 64.7832 189.222C64.0491 189.988 64.0491 191.229 64.7832 191.995C65.5173 192.76 66.7076 192.76 67.4417 191.995Z" fill="#D71C34"/>
<path d="M80.1992 205.299C80.8201 204.651 80.82 203.601 80.1992 202.954C79.5783 202.306 78.5716 202.306 77.9508 202.954C77.3299 203.601 77.3299 204.651 77.9508 205.299C78.5716 205.946 79.5783 205.946 80.1992 205.299Z" fill="#D71C34"/>
<path d="M92.9566 218.603C93.4643 218.074 93.4643 217.215 92.9566 216.686C92.449 216.156 91.626 216.156 91.1183 216.686C90.6107 217.215 90.6107 218.074 91.1183 218.603C91.626 219.132 92.449 219.132 92.9566 218.603Z" fill="#D71C34"/>
<path d="M2.21905 96.9405C2.72669 96.4111 2.72669 95.5528 2.21905 95.0234C1.71141 94.494 0.888367 94.494 0.380729 95.0234C-0.12691 95.5528 -0.12691 96.4111 0.380729 96.9405C0.888367 97.4699 1.71141 97.4699 2.21905 96.9405Z" fill="#D71C34"/>
<path d="M15.4856 110.776C16.1611 110.071 16.1611 108.929 15.4856 108.224C14.81 107.52 13.7148 107.52 13.0392 108.224C12.3637 108.929 12.3637 110.071 13.0392 110.776C13.7148 111.48 14.81 111.48 15.4856 110.776Z" fill="#D71C34"/>
<path d="M28.7521 124.611C29.5956 123.731 29.5956 122.305 28.7521 121.425C27.9087 120.546 26.5412 120.546 25.6977 121.425C24.8542 122.305 24.8542 123.731 25.6977 124.611C26.5412 125.49 27.9087 125.49 28.7521 124.611Z" fill="#D71C34"/>
<path d="M42.0187 138.446C43.03 137.391 43.0301 135.681 42.0187 134.626C41.0073 133.572 39.3676 133.572 38.3562 134.626C37.3448 135.681 37.3448 137.391 38.3562 138.446C39.3675 139.501 41.0073 139.501 42.0187 138.446Z" fill="#D71C34"/>
<path d="M55.2852 152.281C56.4645 151.051 56.4645 149.057 55.2852 147.827C54.1059 146.598 52.1939 146.598 51.0147 147.827C49.8354 149.057 49.8354 151.051 51.0147 152.281C52.1939 153.511 54.1059 153.511 55.2852 152.281Z" fill="#D71C34"/>
<path d="M68.2477 165.799C69.427 164.569 69.427 162.575 68.2477 161.345C67.0685 160.116 65.1565 160.116 63.9772 161.345C62.7979 162.575 62.7979 164.569 63.9772 165.799C65.1565 167.029 67.0685 167.029 68.2477 165.799Z" fill="#D71C34"/>
<path d="M80.9062 179C81.9176 177.945 81.9176 176.235 80.9062 175.181C79.8948 174.126 78.2551 174.126 77.2437 175.181C76.2323 176.235 76.2323 177.945 77.2437 179C78.2551 180.055 79.8948 180.055 80.9062 179Z" fill="#D71C34"/>
<path d="M93.5647 192.201C94.4082 191.321 94.4082 189.895 93.5647 189.016C92.7212 188.136 91.3537 188.136 90.5103 189.016C89.6668 189.895 89.6668 191.321 90.5103 192.201C91.3537 193.081 92.7212 193.081 93.5647 192.201Z" fill="#D71C34"/>
<path d="M106.223 205.402C106.899 204.697 106.899 203.555 106.223 202.851C105.548 202.146 104.452 202.146 103.777 202.851C103.101 203.555 103.101 204.697 103.777 205.402C104.452 206.106 105.548 206.106 106.223 205.402Z" fill="#D71C34"/>
<path d="M118.882 218.603C119.389 218.074 119.389 217.215 118.882 216.686C118.374 216.156 117.551 216.156 117.043 216.686C116.536 217.215 116.536 218.074 117.043 218.603C117.551 219.132 118.374 219.132 118.882 218.603Z" fill="#D71C34"/>
<path d="M15.3866 83.6363C16.0075 82.9888 16.0075 81.939 15.3866 81.2915C14.7657 80.644 13.7591 80.644 13.1382 81.2915C12.5173 81.939 12.5173 82.9888 13.1382 83.6363C13.7591 84.2838 14.7657 84.2838 15.3866 83.6363Z" fill="#D71C34"/>
<path d="M28.7521 97.5746C29.5956 96.695 29.5956 95.2689 28.7521 94.3893C27.9087 93.5097 26.5412 93.5097 25.6977 94.3893C24.8542 95.2689 24.8542 96.695 25.6977 97.5746C26.5412 98.4542 27.9087 98.4542 28.7521 97.5746Z" fill="#D71C34"/>
<path d="M42.1247 111.52C43.1947 110.405 43.1947 108.595 42.1247 107.48C41.0548 106.364 39.3201 106.364 38.2501 107.48C37.1802 108.595 37.1802 110.405 38.2501 111.52C39.3201 112.636 41.0548 112.636 42.1247 111.52Z" fill="#D71C34"/>
<path d="M55.4903 125.459C56.7828 124.111 56.7828 121.925 55.4903 120.577C54.1977 119.23 52.1021 119.23 50.8096 120.577C49.5171 121.925 49.5171 124.111 50.8096 125.459C52.1021 126.807 54.1977 126.807 55.4903 125.459Z" fill="#D71C34"/>
<path d="M68.8558 139.397C70.3709 137.817 70.3709 135.255 68.8558 133.675C67.3407 132.095 64.8842 132.095 63.3691 133.675C61.854 135.255 61.854 137.817 63.3691 139.397C64.8842 140.977 67.3407 140.977 68.8558 139.397Z" fill="#D71C34"/>
<path d="M81.8183 152.915C83.3334 151.335 83.3334 148.773 81.8183 147.193C80.3032 145.613 77.8467 145.613 76.3316 147.193C74.8165 148.773 74.8165 151.335 76.3316 152.915C77.8467 154.495 80.3032 154.495 81.8183 152.915Z" fill="#D71C34"/>
<path d="M94.3778 166.013C95.6703 164.665 95.6703 162.48 94.3778 161.132C93.0853 159.784 90.9897 159.784 89.6972 161.132C88.4046 162.48 88.4046 164.665 89.6972 166.013C90.9897 167.361 93.0853 167.361 94.3778 166.013Z" fill="#D71C34"/>
<path d="M106.937 179.111C108.007 177.995 108.007 176.186 106.937 175.07C105.867 173.954 104.133 173.954 103.063 175.07C101.993 176.186 101.993 177.995 103.063 179.111C104.133 180.226 105.867 180.226 106.937 179.111Z" fill="#D71C34"/>
<path d="M119.49 192.201C120.333 191.321 120.333 189.895 119.49 189.016C118.646 188.136 117.279 188.136 116.435 189.016C115.592 189.895 115.592 191.321 116.435 192.201C117.279 193.081 118.646 193.081 119.49 192.201Z" fill="#D71C34"/>
<path d="M132.049 205.299C132.67 204.651 132.67 203.601 132.049 202.954C131.428 202.306 130.422 202.306 129.801 202.954C129.18 203.601 129.18 204.651 129.801 205.299C130.422 205.946 131.428 205.946 132.049 205.299Z" fill="#D71C34"/>
<path d="M15.0826 56.2831C15.5355 55.8107 15.5355 55.0449 15.0826 54.5725C14.6296 54.1001 13.8952 54.1001 13.4422 54.5725C12.9893 55.0449 12.9893 55.8107 13.4422 56.2831C13.8952 56.7555 14.6296 56.7555 15.0826 56.2831Z" fill="#D71C34"/>
<path d="M28.5542 70.3321C29.2883 69.5665 29.2883 68.3252 28.5542 67.5596C27.82 66.7941 26.6298 66.7941 25.8957 67.5596C25.1615 68.3252 25.1615 69.5665 25.8957 70.3321C26.6298 71.0976 27.82 71.0976 28.5542 70.3321Z" fill="#D71C34"/>
<path d="M42.0187 84.3736C43.0301 83.3189 43.03 81.6089 42.0187 80.5542C41.0073 79.4995 39.3675 79.4995 38.3562 80.5542C37.3448 81.6089 37.3448 83.3189 38.3562 84.3736C39.3676 85.4283 41.0073 85.4284 42.0187 84.3736Z" fill="#D71C34"/>
<path d="M55.4903 98.4226C56.7828 97.0747 56.7828 94.8893 55.4903 93.5413C54.1977 92.1934 52.1021 92.1934 50.8096 93.5413C49.5171 94.8893 49.5171 97.0746 50.8096 98.4226C52.1021 99.7705 54.1977 99.7705 55.4903 98.4226Z" fill="#D71C34"/>
<path d="M68.9619 112.472C70.5355 110.83 70.5355 108.17 68.9619 106.528C67.3882 104.887 64.8367 104.887 63.2631 106.528C61.6894 108.17 61.6894 110.83 63.2631 112.472C64.8367 114.113 67.3882 114.113 68.9619 112.472Z" fill="#D71C34"/>
<path d="M82.4264 126.513C84.2773 124.583 84.2773 121.453 82.4264 119.523C80.5754 117.593 77.5745 117.593 75.7236 119.523C73.8726 121.453 73.8726 124.583 75.7236 126.513C77.5745 128.443 80.5754 128.443 82.4264 126.513Z" fill="#D71C34"/>
<path d="M95.3889 140.031C97.2398 138.101 97.2398 134.971 95.3889 133.041C93.5379 131.111 90.537 131.111 88.6861 133.041C86.8352 134.971 86.8352 138.101 88.6861 140.031C90.537 141.961 93.538 141.961 95.3889 140.031Z" fill="#D71C34"/>
<path d="M107.849 153.026C109.423 151.385 109.423 148.724 107.849 147.083C106.276 145.442 103.724 145.442 102.151 147.083C100.577 148.724 100.577 151.385 102.151 153.026C103.724 154.667 106.276 154.667 107.849 153.026Z" fill="#D71C34"/>
<path d="M120.303 166.013C121.595 164.665 121.595 162.48 120.303 161.132C119.01 159.784 116.915 159.784 115.622 161.132C114.33 162.48 114.33 164.665 115.622 166.013C116.915 167.361 119.01 167.361 120.303 166.013Z" fill="#D71C34"/>
<path d="M132.756 179C133.768 177.945 133.768 176.235 132.756 175.181C131.745 174.126 130.105 174.126 129.094 175.181C128.082 176.235 128.082 177.945 129.094 179C130.105 180.055 131.745 180.055 132.756 179Z" fill="#D71C34"/>
<path d="M145.217 191.995C145.951 191.229 145.951 189.988 145.217 189.222C144.483 188.457 143.292 188.457 142.558 189.222C141.824 189.988 141.824 191.229 142.558 191.995C143.292 192.76 144.483 192.76 145.217 191.995Z" fill="#D71C34"/>
<path d="M157.67 204.982C158.123 204.509 158.123 203.743 157.67 203.271C157.217 202.799 156.483 202.799 156.03 203.271C155.577 203.743 155.577 204.509 156.03 204.982C156.483 205.454 157.217 205.454 157.67 204.982Z" fill="#D71C34"/>
<path d="M28.1441 42.8683C28.6517 42.3389 28.6517 41.4806 28.1441 40.9512C27.6364 40.4218 26.8134 40.4218 26.3058 40.9512C25.7981 41.4806 25.7981 42.3389 26.3058 42.8683C26.8134 43.3977 27.6364 43.3977 28.1441 42.8683Z" fill="#D71C34"/>
<path d="M41.7147 57.0205C42.5581 56.1409 42.5581 54.7147 41.7147 53.8351C40.8712 52.9555 39.5037 52.9555 38.6602 53.8351C37.8168 54.7147 37.8167 56.1409 38.6602 57.0205C39.5037 57.9001 40.8712 57.9001 41.7147 57.0205Z" fill="#D71C34"/>
<path d="M55.2852 71.1726C56.4645 69.9428 56.4645 67.9489 55.2852 66.7191C54.1059 65.4892 52.1939 65.4892 51.0147 66.7191C49.8354 67.9489 49.8354 69.9428 51.0147 71.1726C52.1939 72.4025 54.1059 72.4025 55.2852 71.1726Z" fill="#D71C34"/>
<path d="M68.8558 85.3248C70.3709 83.7448 70.3709 81.183 68.8558 79.603C67.3407 78.023 64.8842 78.023 63.3691 79.603C61.854 81.183 61.854 83.7448 63.3691 85.3248C64.8842 86.9048 67.3407 86.9048 68.8558 85.3248Z" fill="#D71C34"/>
<path d="M82.4264 99.477C84.2773 97.5467 84.2773 94.4172 82.4264 92.4869C80.5754 90.5567 77.5745 90.5567 75.7236 92.4869C73.8726 94.4172 73.8726 97.5467 75.7236 99.477C77.5745 101.407 80.5754 101.407 82.4264 99.477Z" fill="#D71C34"/>
<path d="M95.9969 113.629C98.1837 111.349 98.1837 107.651 95.9969 105.371C93.8102 103.09 90.2648 103.09 88.078 105.371C85.8913 107.651 85.8913 111.349 88.078 113.629C90.2648 115.91 93.8102 115.91 95.9969 113.629Z" fill="#D71C34"/>
<path d="M108.959 127.147C111.146 124.867 111.146 121.169 108.959 118.889C106.773 116.608 103.227 116.608 101.041 118.889C98.8538 121.169 98.8538 124.867 101.041 127.147C103.227 129.428 106.773 129.428 108.959 127.147Z" fill="#D71C34"/>
<path d="M121.314 140.031C123.165 138.101 123.165 134.971 121.314 133.041C119.463 131.111 116.462 131.111 114.611 133.041C112.76 134.971 112.76 138.101 114.611 140.031C116.462 141.961 119.463 141.961 121.314 140.031Z" fill="#D71C34"/>
<path d="M133.668 152.915C135.183 151.335 135.183 148.773 133.668 147.193C132.153 145.613 129.697 145.613 128.182 147.193C126.667 148.773 126.667 151.335 128.182 152.915C129.697 154.495 132.153 154.495 133.668 152.915Z" fill="#D71C34"/>
<path d="M146.023 165.799C147.202 164.569 147.202 162.575 146.023 161.345C144.844 160.116 142.932 160.116 141.752 161.345C140.573 162.575 140.573 164.569 141.752 165.799C142.932 167.029 144.844 167.029 146.023 165.799Z" fill="#D71C34"/>
<path d="M158.377 178.683C159.221 177.803 159.221 176.377 158.377 175.498C157.534 174.618 156.166 174.618 155.323 175.498C154.479 176.377 154.479 177.803 155.323 178.683C156.166 179.563 157.534 179.563 158.377 178.683Z" fill="#D71C34"/>
<path d="M170.732 191.567C171.239 191.037 171.239 190.179 170.732 189.65C170.224 189.12 169.401 189.12 168.893 189.65C168.386 190.179 168.386 191.037 168.893 191.567C169.401 192.096 170.224 192.096 170.732 191.567Z" fill="#D71C34"/>
<path d="M41.1066 29.3503C41.6142 28.8209 41.6142 27.9625 41.1066 27.4332C40.599 26.9038 39.7759 26.9038 39.2683 27.4332C38.7606 27.9625 38.7606 28.8209 39.2683 29.3503C39.7759 29.8796 40.5989 29.8797 41.1066 29.3503Z" fill="#D71C34"/>
<path d="M54.6772 43.5024C55.5206 42.6228 55.5206 41.1967 54.6772 40.3171C53.8337 39.4375 52.4662 39.4375 51.6227 40.3171C50.7793 41.1967 50.7793 42.6228 51.6227 43.5024C52.4662 44.382 53.8337 44.382 54.6772 43.5024Z" fill="#D71C34"/>
<path d="M68.2477 57.6546C69.427 56.4248 69.427 54.4308 68.2477 53.201C67.0685 51.9712 65.1565 51.9712 63.9772 53.201C62.7979 54.4308 62.7979 56.4248 63.9772 57.6546C65.1565 58.8844 67.0685 58.8844 68.2477 57.6546Z" fill="#D71C34"/>
<path d="M81.8183 71.8068C83.3334 70.2267 83.3334 67.665 81.8183 66.0849C80.3032 64.5049 77.8467 64.5049 76.3316 66.0849C74.8165 67.665 74.8165 70.2267 76.3316 71.8068C77.8467 73.3868 80.3032 73.3868 81.8183 71.8068Z" fill="#D71C34"/>
<path d="M95.3889 85.9589C97.2398 84.0287 97.2398 80.8991 95.3889 78.9689C93.538 77.0386 90.537 77.0386 88.6861 78.9689C86.8352 80.8991 86.8352 84.0287 88.6861 85.9589C90.537 87.8892 93.5379 87.8892 95.3889 85.9589Z" fill="#D71C34"/>
<path d="M108.959 100.111C111.146 97.8306 111.146 94.1333 108.959 91.8528C106.773 89.5723 103.227 89.5723 101.041 91.8528C98.8538 94.1333 98.8538 97.8306 101.041 100.111C103.227 102.392 106.773 102.392 108.959 100.111Z" fill="#D71C34"/>
<path d="M121.922 113.629C124.109 111.349 124.109 107.651 121.922 105.371C119.735 103.09 116.19 103.09 114.003 105.371C111.816 107.651 111.816 111.349 114.003 113.629C116.19 115.91 119.735 115.91 121.922 113.629Z" fill="#D71C34"/>
<path d="M134.276 126.513C136.127 124.583 136.127 121.453 134.276 119.523C132.425 117.593 129.425 117.593 127.574 119.523C125.723 121.453 125.723 124.583 127.574 126.513C129.425 128.443 132.425 128.443 134.276 126.513Z" fill="#D71C34"/>
<path d="M146.631 139.397C148.146 137.817 148.146 135.255 146.631 133.675C145.116 132.095 142.659 132.095 141.144 133.675C139.629 135.255 139.629 137.817 141.144 139.397C142.659 140.977 145.116 140.977 146.631 139.397Z" fill="#D71C34"/>
<path d="M158.985 152.281C160.165 151.051 160.165 149.057 158.985 147.827C157.806 146.598 155.894 146.598 154.715 147.827C153.535 149.057 153.535 151.051 154.715 152.281C155.894 153.511 157.806 153.511 158.985 152.281Z" fill="#D71C34"/>
<path d="M171.34 165.165C172.183 164.285 172.183 162.859 171.34 161.98C170.496 161.1 169.129 161.1 168.285 161.98C167.442 162.859 167.442 164.285 168.285 165.165C169.129 166.044 170.496 166.044 171.34 165.165Z" fill="#D71C34"/>
<path d="M183.694 178.049C184.202 177.519 184.202 176.661 183.694 176.132C183.187 175.602 182.364 175.602 181.856 176.132C181.348 176.661 181.348 177.519 181.856 178.049C182.364 178.578 183.187 178.578 183.694 178.049Z" fill="#D71C34"/>
<path d="M53.9701 15.729C54.4231 15.2566 54.4231 14.4907 53.9701 14.0183C53.5171 13.5459 52.7827 13.5459 52.3298 14.0183C51.8768 14.4907 51.8768 15.2566 52.3298 15.729C52.7827 16.2014 53.5171 16.2014 53.9701 15.729Z" fill="#D71C34"/>
<path d="M67.4417 29.7779C68.1758 29.0123 68.1758 27.7711 67.4417 27.0055C66.7076 26.2399 65.5173 26.2399 64.7832 27.0055C64.0491 27.7711 64.0491 29.0123 64.7832 29.7779C65.5173 30.5435 66.7076 30.5435 67.4417 29.7779Z" fill="#D71C34"/>
<path d="M80.9062 43.8195C81.9176 42.7648 81.9176 41.0547 80.9062 40C79.8948 38.9453 78.2551 38.9453 77.2437 40C76.2323 41.0547 76.2323 42.7648 77.2437 43.8195C78.2551 44.8742 79.8948 44.8742 80.9062 43.8195Z" fill="#D71C34"/>
<path d="M94.3778 57.8684C95.6703 56.5205 95.6703 54.3351 94.3778 52.9872C93.0853 51.6393 90.9897 51.6393 89.6972 52.9872C88.4046 54.3351 88.4046 56.5205 89.6972 57.8684C90.9897 59.2163 93.0853 59.2163 94.3778 57.8684Z" fill="#D71C34"/>
<path d="M107.849 71.9174C109.423 70.2762 109.423 67.6155 107.849 65.9743C106.276 64.3332 103.724 64.3332 102.151 65.9743C100.577 67.6155 100.577 70.2762 102.151 71.9174C103.724 73.5585 106.276 73.5585 107.849 71.9174Z" fill="#D71C34"/>
<path d="M121.314 85.9589C123.165 84.0287 123.165 80.8991 121.314 78.9689C119.463 77.0386 116.462 77.0386 114.611 78.9689C112.76 80.8991 112.76 84.0287 114.611 85.9589C116.462 87.8892 119.463 87.8892 121.314 85.9589Z" fill="#D71C34"/>
<path d="M134.276 99.477C136.127 97.5467 136.127 94.4172 134.276 92.4869C132.425 90.5567 129.425 90.5567 127.574 92.4869C125.723 94.4172 125.723 97.5467 127.574 99.477C129.425 101.407 132.425 101.407 134.276 99.477Z" fill="#D71C34"/>
<path d="M146.737 112.472C148.311 110.83 148.311 108.17 146.737 106.528C145.163 104.887 142.612 104.887 141.038 106.528C139.464 108.17 139.464 110.83 141.038 112.472C142.612 114.113 145.163 114.113 146.737 112.472Z" fill="#D71C34"/>
<path d="M159.19 125.459C160.483 124.111 160.483 121.925 159.19 120.577C157.898 119.23 155.802 119.23 154.51 120.577C153.217 121.925 153.217 124.111 154.51 125.459C155.802 126.807 157.898 126.807 159.19 125.459Z" fill="#D71C34"/>
<path d="M171.644 138.446C172.655 137.391 172.655 135.681 171.644 134.626C170.632 133.572 168.993 133.572 167.981 134.626C166.97 135.681 166.97 137.391 167.981 138.446C168.993 139.501 170.632 139.501 171.644 138.446Z" fill="#D71C34"/>
<path d="M184.104 151.44C184.838 150.675 184.838 149.434 184.104 148.668C183.37 147.902 182.18 147.902 181.446 148.668C180.712 149.434 180.712 150.675 181.446 151.44C182.18 152.206 183.37 152.206 184.104 151.44Z" fill="#D71C34"/>
<path d="M196.558 164.428C197.011 163.955 197.011 163.189 196.558 162.717C196.105 162.244 195.37 162.244 194.917 162.717C194.464 163.189 194.464 163.955 194.917 164.428C195.37 164.9 196.105 164.9 196.558 164.428Z" fill="#D71C34"/>
<path d="M80.1992 16.046C80.82 15.3986 80.8201 14.3488 80.1992 13.7013C79.5783 13.0538 78.5716 13.0538 77.9508 13.7013C77.3299 14.3488 77.3299 15.3985 77.9508 16.046C78.5716 16.6935 79.5783 16.6935 80.1992 16.046Z" fill="#D71C34"/>
<path d="M93.5647 29.9844C94.4082 29.1048 94.4082 27.6786 93.5647 26.799C92.7212 25.9194 91.3537 25.9194 90.5103 26.799C89.6668 27.6786 89.6668 29.1048 90.5103 29.9844C91.3537 30.864 92.7212 30.864 93.5647 29.9844Z" fill="#D71C34"/>
<path d="M106.937 43.9301C108.007 42.8143 108.007 41.0052 106.937 39.8894C105.867 38.7736 104.133 38.7736 103.063 39.8894C101.993 41.0052 101.993 42.8143 103.063 43.9301C104.133 45.0459 105.867 45.0459 106.937 43.9301Z" fill="#D71C34"/>
<path d="M120.303 57.8684C121.595 56.5205 121.595 54.3351 120.303 52.9872C119.01 51.6393 116.915 51.6393 115.622 52.9872C114.33 54.3351 114.33 56.5205 115.622 57.8684C116.915 59.2163 119.01 59.2163 120.303 57.8684Z" fill="#D71C34"/>
<path d="M133.668 71.8068C135.183 70.2267 135.183 67.665 133.668 66.0849C132.153 64.5049 129.697 64.5049 128.182 66.0849C126.667 67.665 126.667 70.2267 128.182 71.8068C129.697 73.3868 132.153 73.3868 133.668 71.8068Z" fill="#D71C34"/>
<path d="M146.631 85.3248C148.146 83.7448 148.146 81.183 146.631 79.603C145.116 78.023 142.659 78.023 141.144 79.603C139.629 81.183 139.629 83.7448 141.144 85.3248C142.659 86.9048 145.116 86.9049 146.631 85.3248Z" fill="#D71C34"/>
<path d="M159.19 98.4226C160.483 97.0747 160.483 94.8893 159.19 93.5413C157.898 92.1934 155.802 92.1934 154.51 93.5413C153.217 94.8893 153.217 97.0747 154.51 98.4226C155.802 99.7705 157.898 99.7705 159.19 98.4226Z" fill="#D71C34"/>
<path d="M171.75 111.52C172.82 110.405 172.82 108.595 171.75 107.48C170.68 106.364 168.945 106.364 167.875 107.48C166.805 108.595 166.805 110.405 167.875 111.52C168.945 112.636 170.68 112.636 171.75 111.52Z" fill="#D71C34"/>
<path d="M184.302 124.611C185.146 123.731 185.146 122.305 184.302 121.425C183.459 120.546 182.091 120.546 181.248 121.425C180.404 122.305 180.404 123.731 181.248 124.611C182.091 125.49 183.459 125.49 184.302 124.611Z" fill="#D71C34"/>
<path d="M196.862 137.708C197.483 137.061 197.483 136.011 196.862 135.364C196.241 134.716 195.234 134.716 194.613 135.364C193.993 136.011 193.993 137.061 194.613 137.708C195.234 138.356 196.241 138.356 196.862 137.708Z" fill="#D71C34"/>
<path d="M92.9566 2.31415C93.4643 1.78476 93.4643 0.926448 92.9566 0.397054C92.449 -0.13234 91.626 -0.132349 91.1183 0.397046C90.6107 0.92644 90.6107 1.78476 91.1183 2.31415C91.626 2.84355 92.449 2.84354 92.9566 2.31415Z" fill="#D71C34"/>
<path d="M106.223 16.1493C106.899 15.4448 106.899 14.3025 106.223 13.598C105.548 12.8935 104.452 12.8935 103.777 13.598C103.101 14.3025 103.101 15.4448 103.777 16.1493C104.452 16.8538 105.548 16.8538 106.223 16.1493Z" fill="#D71C34"/>
<path d="M119.49 29.9844C120.333 29.1048 120.333 27.6786 119.49 26.799C118.646 25.9194 117.279 25.9194 116.435 26.799C115.592 27.6786 115.592 29.1048 116.435 29.9844C117.279 30.864 118.646 30.864 119.49 29.9844Z" fill="#D71C34"/>
<path d="M132.756 43.8195C133.768 42.7648 133.768 41.0547 132.756 40C131.745 38.9453 130.105 38.9453 129.094 40C128.082 41.0547 128.082 42.7648 129.094 43.8195C130.105 44.8742 131.745 44.8742 132.756 43.8195Z" fill="#D71C34"/>
<path d="M146.023 57.6546C147.202 56.4248 147.202 54.4308 146.023 53.201C144.844 51.9712 142.932 51.9712 141.752 53.201C140.573 54.4308 140.573 56.4248 141.752 57.6546C142.932 58.8844 144.844 58.8844 146.023 57.6546Z" fill="#D71C34"/>
<path d="M158.985 71.1726C160.165 69.9428 160.165 67.9489 158.985 66.7191C157.806 65.4892 155.894 65.4892 154.715 66.7191C153.535 67.9489 153.535 69.9428 154.715 71.1726C155.894 72.4025 157.806 72.4025 158.985 71.1726Z" fill="#D71C34"/>
<path d="M171.644 84.3736C172.655 83.3189 172.655 81.6089 171.644 80.5542C170.632 79.4995 168.993 79.4995 167.981 80.5542C166.97 81.6089 166.97 83.3189 167.981 84.3736C168.993 85.4284 170.632 85.4283 171.644 84.3736Z" fill="#D71C34"/>
<path d="M184.302 97.5746C185.146 96.695 185.146 95.2689 184.302 94.3893C183.459 93.5097 182.091 93.5097 181.248 94.3893C180.404 95.2689 180.404 96.695 181.248 97.5746C182.091 98.4542 183.459 98.4542 184.302 97.5746Z" fill="#D71C34"/>
<path d="M196.961 110.776C197.636 110.071 197.636 108.929 196.961 108.224C196.285 107.52 195.19 107.52 194.514 108.224C193.839 108.929 193.839 110.071 194.514 110.776C195.19 111.48 196.285 111.48 196.961 110.776Z" fill="#D71C34"/>
<path d="M209.619 123.977C210.127 123.447 210.127 122.589 209.619 122.06C209.112 121.53 208.289 121.53 207.781 122.059C207.273 122.589 207.273 123.447 207.781 123.977C208.289 124.506 209.112 124.506 209.619 123.977Z" fill="#D71C34"/>
<path d="M118.882 2.31415C119.389 1.78476 119.389 0.926438 118.882 0.397044C118.374 -0.13235 117.551 -0.132347 117.043 0.397047C116.536 0.926441 116.536 1.78476 117.043 2.31415C117.551 2.84355 118.374 2.84355 118.882 2.31415Z" fill="#D71C34"/>
<path d="M132.049 16.046C132.67 15.3985 132.67 14.3488 132.049 13.7013C131.428 13.0538 130.422 13.0538 129.801 13.7013C129.18 14.3488 129.18 15.3985 129.801 16.046C130.422 16.6935 131.428 16.6935 132.049 16.046Z" fill="#D71C34"/>
<path d="M145.217 29.7779C145.951 29.0123 145.951 27.7711 145.217 27.0055C144.483 26.2399 143.292 26.2399 142.558 27.0055C141.824 27.7711 141.824 29.0123 142.558 29.7779C143.292 30.5435 144.483 30.5435 145.217 29.7779Z" fill="#D71C34"/>
<path d="M158.377 43.5024C159.221 42.6228 159.221 41.1967 158.377 40.3171C157.534 39.4375 156.166 39.4375 155.323 40.3171C154.479 41.1967 154.479 42.6228 155.323 43.5024C156.166 44.382 157.534 44.382 158.377 43.5024Z" fill="#D71C34"/>
<path d="M171.34 57.0205C172.183 56.1409 172.183 54.7147 171.34 53.8351C170.496 52.9555 169.129 52.9555 168.285 53.8351C167.442 54.7147 167.442 56.1409 168.285 57.0205C169.129 57.9001 170.496 57.9001 171.34 57.0205Z" fill="#D71C34"/>
<path d="M184.104 70.3321C184.838 69.5665 184.838 68.3252 184.104 67.5596C183.37 66.7941 182.18 66.7941 181.446 67.5596C180.712 68.3252 180.712 69.5665 181.446 70.3321C182.18 71.0977 183.37 71.0977 184.104 70.3321Z" fill="#D71C34"/>
<path d="M196.862 83.6363C197.483 82.9888 197.483 81.939 196.862 81.2915C196.241 80.644 195.234 80.644 194.613 81.2915C193.993 81.939 193.993 82.9888 194.613 83.6363C195.234 84.2838 196.241 84.2838 196.862 83.6363Z" fill="#D71C34"/>
<path d="M209.619 96.9405C210.127 96.4111 210.127 95.5528 209.619 95.0234C209.112 94.494 208.289 94.494 207.781 95.0234C207.273 95.5528 207.273 96.4111 207.781 96.9405C208.289 97.4699 209.112 97.4699 209.619 96.9405Z" fill="#D71C34"/>
<path d="M157.67 15.729C158.123 15.2566 158.123 14.4907 157.67 14.0183C157.217 13.5459 156.483 13.5459 156.03 14.0183C155.577 14.4907 155.577 15.2566 156.03 15.729C156.483 16.2014 157.217 16.2014 157.67 15.729Z" fill="#D71C34"/>
<path d="M170.732 29.3503C171.239 28.8209 171.239 27.9625 170.732 27.4332C170.224 26.9038 169.401 26.9038 168.893 27.4332C168.386 27.9625 168.386 28.8209 168.893 29.3503C169.401 29.8796 170.224 29.8797 170.732 29.3503Z" fill="#D71C34"/>
<path d="M183.694 42.8683C184.202 42.3389 184.202 41.4806 183.694 40.9512C183.187 40.4218 182.364 40.4218 181.856 40.9512C181.348 41.4806 181.348 42.3389 181.856 42.8683C182.364 43.3977 183.187 43.3977 183.694 42.8683Z" fill="#D71C34"/>
<path d="M196.558 56.2831C197.011 55.8108 197.011 55.0449 196.558 54.5725C196.105 54.1001 195.37 54.1001 194.917 54.5725C194.464 55.0449 194.464 55.8107 194.917 56.2831C195.37 56.7555 196.105 56.7555 196.558 56.2831Z" fill="#D71C34"/>
</svg>
