<svg width="56" height="219" viewBox="0 0 56 219" fill="none" xmlns="http://www.w3.org/2000/svg">
<path d="M-138.917 164.428C-138.464 163.955 -138.464 163.189 -138.917 162.717C-139.37 162.244 -140.105 162.244 -140.558 162.717C-141.011 163.189 -141.011 163.955 -140.558 164.428C-140.105 164.9 -139.37 164.9 -138.917 164.428Z" fill="#D71C34"/>
<path d="M-125.856 178.049C-125.348 177.519 -125.348 176.661 -125.856 176.132C-126.364 175.602 -127.187 175.602 -127.694 176.132C-128.202 176.661 -128.202 177.519 -127.694 178.049C-127.187 178.578 -126.364 178.578 -125.856 178.049Z" fill="#D71C34"/>
<path d="M-112.893 191.567C-112.386 191.037 -112.386 190.179 -112.893 189.65C-113.401 189.12 -114.224 189.12 -114.732 189.65C-115.239 190.179 -115.239 191.037 -114.732 191.567C-114.224 192.096 -113.401 192.096 -112.893 191.567Z" fill="#D71C34"/>
<path d="M-100.03 204.982C-99.5769 204.509 -99.5769 203.743 -100.03 203.271C-100.483 202.799 -101.217 202.799 -101.67 203.271C-102.123 203.743 -102.123 204.509 -101.67 204.982C-101.217 205.454 -100.483 205.454 -100.03 204.982Z" fill="#D71C34"/>
<path d="M-151.781 123.977C-151.273 123.447 -151.273 122.589 -151.781 122.06C-152.289 121.53 -153.112 121.53 -153.619 122.06C-154.127 122.589 -154.127 123.447 -153.619 123.977C-153.112 124.506 -152.289 124.506 -151.781 123.977Z" fill="#D71C34"/>
<path d="M-138.613 137.708C-137.993 137.061 -137.993 136.011 -138.613 135.364C-139.234 134.716 -140.241 134.716 -140.862 135.364C-141.483 136.011 -141.483 137.061 -140.862 137.708C-140.241 138.356 -139.234 138.356 -138.613 137.708Z" fill="#D71C34"/>
<path d="M-125.446 151.44C-124.712 150.675 -124.712 149.434 -125.446 148.668C-126.18 147.902 -127.37 147.902 -128.104 148.668C-128.838 149.434 -128.838 150.675 -128.104 151.44C-127.37 152.206 -126.18 152.206 -125.446 151.44Z" fill="#D71C34"/>
<path d="M-112.285 165.165C-111.442 164.285 -111.442 162.859 -112.285 161.98C-113.129 161.1 -114.496 161.1 -115.34 161.98C-116.183 162.859 -116.183 164.285 -115.34 165.165C-114.496 166.044 -113.129 166.044 -112.285 165.165Z" fill="#D71C34"/>
<path d="M-99.3228 178.683C-98.4794 177.803 -98.4794 176.377 -99.3228 175.498C-100.166 174.618 -101.534 174.618 -102.377 175.498C-103.221 176.377 -103.221 177.803 -102.377 178.683C-101.534 179.563 -100.166 179.563 -99.3228 178.683Z" fill="#D71C34"/>
<path d="M-86.5583 191.995C-85.8242 191.229 -85.8242 189.988 -86.5583 189.222C-87.2924 188.457 -88.4827 188.457 -89.2168 189.222C-89.9509 189.988 -89.9509 191.229 -89.2168 191.995C-88.4827 192.76 -87.2924 192.76 -86.5583 191.995Z" fill="#D71C34"/>
<path d="M-73.8008 205.299C-73.1799 204.651 -73.18 203.601 -73.8008 202.954C-74.4217 202.306 -75.4284 202.306 -76.0492 202.954C-76.6701 203.601 -76.6701 204.651 -76.0492 205.299C-75.4284 205.946 -74.4217 205.946 -73.8008 205.299Z" fill="#D71C34"/>
<path d="M-61.0434 218.603C-60.5357 218.074 -60.5357 217.215 -61.0434 216.686C-61.551 216.156 -62.374 216.156 -62.8817 216.686C-63.3893 217.215 -63.3893 218.074 -62.8817 218.603C-62.374 219.132 -61.551 219.132 -61.0434 218.603Z" fill="#D71C34"/>
<path d="M-151.781 96.9405C-151.273 96.4111 -151.273 95.5528 -151.781 95.0234C-152.289 94.494 -153.112 94.494 -153.619 95.0234C-154.127 95.5528 -154.127 96.4111 -153.619 96.9405C-153.112 97.4699 -152.289 97.4699 -151.781 96.9405Z" fill="#D71C34"/>
<path d="M-138.514 110.776C-137.839 110.071 -137.839 108.929 -138.514 108.224C-139.19 107.52 -140.285 107.52 -140.961 108.224C-141.636 108.929 -141.636 110.071 -140.961 110.776C-140.285 111.48 -139.19 111.48 -138.514 110.776Z" fill="#D71C34"/>
<path d="M-125.248 124.611C-124.404 123.731 -124.404 122.305 -125.248 121.425C-126.091 120.546 -127.459 120.546 -128.302 121.425C-129.146 122.305 -129.146 123.731 -128.302 124.611C-127.459 125.49 -126.091 125.49 -125.248 124.611Z" fill="#D71C34"/>
<path d="M-111.981 138.446C-110.97 137.391 -110.97 135.681 -111.981 134.626C-112.993 133.572 -114.632 133.572 -115.644 134.626C-116.655 135.681 -116.655 137.391 -115.644 138.446C-114.632 139.501 -112.993 139.501 -111.981 138.446Z" fill="#D71C34"/>
<path d="M-98.7148 152.281C-97.5355 151.051 -97.5355 149.057 -98.7148 147.827C-99.8941 146.598 -101.806 146.598 -102.985 147.827C-104.165 149.057 -104.165 151.051 -102.985 152.281C-101.806 153.511 -99.8941 153.511 -98.7148 152.281Z" fill="#D71C34"/>
<path d="M-85.7523 165.799C-84.573 164.569 -84.573 162.575 -85.7523 161.345C-86.9315 160.116 -88.8435 160.116 -90.0228 161.345C-91.2021 162.575 -91.2021 164.569 -90.0228 165.799C-88.8435 167.029 -86.9315 167.029 -85.7523 165.799Z" fill="#D71C34"/>
<path d="M-73.0938 179C-72.0824 177.945 -72.0824 176.235 -73.0938 175.181C-74.1052 174.126 -75.7449 174.126 -76.7563 175.181C-77.7677 176.235 -77.7677 177.945 -76.7563 179C-75.7449 180.055 -74.1052 180.055 -73.0938 179Z" fill="#D71C34"/>
<path d="M-60.4353 192.201C-59.5918 191.321 -59.5918 189.895 -60.4353 189.016C-61.2788 188.136 -62.6463 188.136 -63.4897 189.016C-64.3332 189.895 -64.3332 191.321 -63.4897 192.201C-62.6463 193.081 -61.2788 193.081 -60.4353 192.201Z" fill="#D71C34"/>
<path d="M-47.7768 205.402C-47.1013 204.697 -47.1013 203.555 -47.7768 202.851C-48.4524 202.146 -49.5477 202.146 -50.2232 202.851C-50.8988 203.555 -50.8987 204.697 -50.2232 205.402C-49.5476 206.106 -48.4524 206.106 -47.7768 205.402Z" fill="#D71C34"/>
<path d="M-35.1183 218.603C-34.6107 218.074 -34.6107 217.215 -35.1183 216.686C-35.626 216.156 -36.449 216.156 -36.9567 216.686C-37.4643 217.215 -37.4643 218.074 -36.9567 218.603C-36.449 219.132 -35.626 219.132 -35.1183 218.603Z" fill="#D71C34"/>
<path d="M-138.613 83.6363C-137.993 82.9888 -137.993 81.939 -138.613 81.2915C-139.234 80.644 -140.241 80.644 -140.862 81.2915C-141.483 81.939 -141.483 82.9888 -140.862 83.6363C-140.241 84.2838 -139.234 84.2838 -138.613 83.6363Z" fill="#D71C34"/>
<path d="M-125.248 97.5746C-124.404 96.695 -124.404 95.2689 -125.248 94.3893C-126.091 93.5097 -127.459 93.5097 -128.302 94.3893C-129.146 95.2689 -129.146 96.695 -128.302 97.5746C-127.459 98.4542 -126.091 98.4542 -125.248 97.5746Z" fill="#D71C34"/>
<path d="M-111.875 111.52C-110.805 110.405 -110.805 108.595 -111.875 107.48C-112.945 106.364 -114.68 106.364 -115.75 107.48C-116.82 108.595 -116.82 110.405 -115.75 111.52C-114.68 112.636 -112.945 112.636 -111.875 111.52Z" fill="#D71C34"/>
<path d="M-98.5097 125.459C-97.2172 124.111 -97.2172 121.925 -98.5097 120.577C-99.8023 119.23 -101.898 119.23 -103.19 120.577C-104.483 121.925 -104.483 124.111 -103.19 125.459C-101.898 126.807 -99.8023 126.807 -98.5097 125.459Z" fill="#D71C34"/>
<path d="M-85.1442 139.397C-83.6291 137.817 -83.6291 135.255 -85.1442 133.675C-86.6593 132.095 -89.1158 132.095 -90.6309 133.675C-92.146 135.255 -92.146 137.817 -90.6309 139.397C-89.1158 140.977 -86.6593 140.977 -85.1442 139.397Z" fill="#D71C34"/>
<path d="M-72.1817 152.915C-70.6666 151.335 -70.6666 148.773 -72.1817 147.193C-73.6968 145.613 -76.1533 145.613 -77.6684 147.193C-79.1835 148.773 -79.1835 151.335 -77.6684 152.915C-76.1533 154.495 -73.6968 154.495 -72.1817 152.915Z" fill="#D71C34"/>
<path d="M-59.6222 166.013C-58.3297 164.665 -58.3297 162.48 -59.6222 161.132C-60.9147 159.784 -63.0103 159.784 -64.3028 161.132C-65.5954 162.48 -65.5954 164.665 -64.3028 166.013C-63.0103 167.361 -60.9147 167.361 -59.6222 166.013Z" fill="#D71C34"/>
<path d="M-47.0627 179.111C-45.9927 177.995 -45.9927 176.186 -47.0627 175.07C-48.1326 173.954 -49.8674 173.954 -50.9373 175.07C-52.0072 176.186 -52.0072 177.995 -50.9373 179.111C-49.8674 180.226 -48.1326 180.226 -47.0627 179.111Z" fill="#D71C34"/>
<path d="M-34.5103 192.201C-33.6668 191.321 -33.6668 189.895 -34.5103 189.016C-35.3537 188.136 -36.7212 188.136 -37.5647 189.016C-38.4082 189.895 -38.4082 191.321 -37.5647 192.201C-36.7212 193.081 -35.3537 193.081 -34.5103 192.201Z" fill="#D71C34"/>
<path d="M-21.9508 205.299C-21.3299 204.651 -21.3299 203.601 -21.9508 202.954C-22.5717 202.306 -23.5783 202.306 -24.1992 202.954C-24.8201 203.601 -24.8201 204.651 -24.1992 205.299C-23.5783 205.946 -22.5717 205.946 -21.9508 205.299Z" fill="#D71C34"/>
<path d="M-138.917 56.2831C-138.464 55.8107 -138.464 55.0449 -138.917 54.5725C-139.37 54.1001 -140.105 54.1001 -140.558 54.5725C-141.011 55.0449 -141.011 55.8107 -140.558 56.2831C-140.105 56.7555 -139.37 56.7555 -138.917 56.2831Z" fill="#D71C34"/>
<path d="M-125.446 70.3321C-124.712 69.5665 -124.712 68.3252 -125.446 67.5596C-126.18 66.7941 -127.37 66.7941 -128.104 67.5596C-128.838 68.3252 -128.838 69.5665 -128.104 70.3321C-127.37 71.0976 -126.18 71.0976 -125.446 70.3321Z" fill="#D71C34"/>
<path d="M-111.981 84.3736C-110.97 83.3189 -110.97 81.6089 -111.981 80.5542C-112.993 79.4995 -114.632 79.4995 -115.644 80.5542C-116.655 81.6089 -116.655 83.3189 -115.644 84.3736C-114.632 85.4283 -112.993 85.4284 -111.981 84.3736Z" fill="#D71C34"/>
<path d="M-98.5097 98.4226C-97.2172 97.0747 -97.2172 94.8893 -98.5097 93.5413C-99.8023 92.1934 -101.898 92.1934 -103.19 93.5413C-104.483 94.8893 -104.483 97.0746 -103.19 98.4226C-101.898 99.7705 -99.8023 99.7705 -98.5097 98.4226Z" fill="#D71C34"/>
<path d="M-85.0381 112.472C-83.4645 110.83 -83.4645 108.17 -85.0381 106.528C-86.6118 104.887 -89.1633 104.887 -90.7369 106.528C-92.3106 108.17 -92.3106 110.83 -90.7369 112.472C-89.1633 114.113 -86.6118 114.113 -85.0381 112.472Z" fill="#D71C34"/>
<path d="M-71.5736 126.513C-69.7227 124.583 -69.7227 121.453 -71.5736 119.523C-73.4246 117.593 -76.4255 117.593 -78.2764 119.523C-80.1274 121.453 -80.1274 124.583 -78.2764 126.513C-76.4255 128.443 -73.4246 128.443 -71.5736 126.513Z" fill="#D71C34"/>
<path d="M-58.6111 140.031C-56.7602 138.101 -56.7602 134.971 -58.6111 133.041C-60.4621 131.111 -63.463 131.111 -65.3139 133.041C-67.1648 134.971 -67.1648 138.101 -65.3139 140.031C-63.463 141.961 -60.462 141.961 -58.6111 140.031Z" fill="#D71C34"/>
<path d="M-46.1506 153.026C-44.5769 151.385 -44.5769 148.724 -46.1506 147.083C-47.7243 145.442 -50.2757 145.442 -51.8494 147.083C-53.4231 148.724 -53.4231 151.385 -51.8494 153.026C-50.2757 154.667 -47.7243 154.667 -46.1506 153.026Z" fill="#D71C34"/>
<path d="M-33.6972 166.013C-32.4046 164.665 -32.4046 162.48 -33.6972 161.132C-34.9897 159.784 -37.0853 159.784 -38.3778 161.132C-39.6703 162.48 -39.6703 164.665 -38.3778 166.013C-37.0853 167.361 -34.9897 167.361 -33.6972 166.013Z" fill="#D71C34"/>
<path d="M-21.2437 179C-20.2324 177.945 -20.2324 176.235 -21.2437 175.181C-22.2551 174.126 -23.8949 174.126 -24.9062 175.181C-25.9176 176.235 -25.9176 177.945 -24.9062 179C-23.8949 180.055 -22.2551 180.055 -21.2437 179Z" fill="#D71C34"/>
<path d="M-8.7832 191.995C-8.04909 191.229 -8.04909 189.988 -8.78322 189.222C-9.51733 188.457 -10.7076 188.457 -11.4417 189.222C-12.1758 189.988 -12.1758 191.229 -11.4417 191.995C-10.7076 192.76 -9.51732 192.76 -8.7832 191.995Z" fill="#D71C34"/>
<path d="M3.67023 204.982C4.1232 204.509 4.1232 203.743 3.67023 203.271C3.21725 202.799 2.48285 202.799 2.02988 203.271C1.5769 203.743 1.5769 204.509 2.02988 204.982C2.48285 205.454 3.21725 205.454 3.67023 204.982Z" fill="#D71C34"/>
<path d="M-125.856 42.8683C-125.348 42.3389 -125.348 41.4806 -125.856 40.9512C-126.364 40.4218 -127.187 40.4218 -127.694 40.9512C-128.202 41.4806 -128.202 42.3389 -127.694 42.8683C-127.187 43.3977 -126.364 43.3977 -125.856 42.8683Z" fill="#D71C34"/>
<path d="M-112.285 57.0205C-111.442 56.1409 -111.442 54.7147 -112.285 53.8351C-113.129 52.9555 -114.496 52.9555 -115.34 53.8351C-116.183 54.7147 -116.183 56.1409 -115.34 57.0205C-114.496 57.9001 -113.129 57.9001 -112.285 57.0205Z" fill="#D71C34"/>
<path d="M-98.7148 71.1726C-97.5355 69.9428 -97.5355 67.9489 -98.7148 66.7191C-99.8941 65.4892 -101.806 65.4892 -102.985 66.7191C-104.165 67.9489 -104.165 69.9428 -102.985 71.1726C-101.806 72.4025 -99.8941 72.4025 -98.7148 71.1726Z" fill="#D71C34"/>
<path d="M-85.1442 85.3248C-83.6291 83.7448 -83.6291 81.183 -85.1442 79.603C-86.6593 78.023 -89.1158 78.023 -90.6309 79.603C-92.146 81.183 -92.146 83.7448 -90.6309 85.3248C-89.1158 86.9048 -86.6593 86.9048 -85.1442 85.3248Z" fill="#D71C34"/>
<path d="M-71.5736 99.477C-69.7227 97.5467 -69.7227 94.4172 -71.5736 92.4869C-73.4246 90.5567 -76.4255 90.5567 -78.2764 92.4869C-80.1274 94.4172 -80.1274 97.5467 -78.2764 99.477C-76.4255 101.407 -73.4246 101.407 -71.5736 99.477Z" fill="#D71C34"/>
<path d="M-58.0031 113.629C-55.8163 111.349 -55.8163 107.651 -58.0031 105.371C-60.1898 103.09 -63.7352 103.09 -65.922 105.371C-68.1087 107.651 -68.1087 111.349 -65.922 113.629C-63.7352 115.91 -60.1898 115.91 -58.0031 113.629Z" fill="#D71C34"/>
<path d="M-45.0405 127.147C-42.8538 124.867 -42.8538 121.169 -45.0405 118.889C-47.2273 116.608 -50.7727 116.608 -52.9595 118.889C-55.1462 121.169 -55.1462 124.867 -52.9595 127.147C-50.7727 129.428 -47.2273 129.428 -45.0405 127.147Z" fill="#D71C34"/>
<path d="M-32.6861 140.031C-30.8352 138.101 -30.8352 134.971 -32.6861 133.041C-34.537 131.111 -37.538 131.111 -39.3889 133.041C-41.2398 134.971 -41.2398 138.101 -39.3889 140.031C-37.538 141.961 -34.537 141.961 -32.6861 140.031Z" fill="#D71C34"/>
<path d="M-20.3316 152.915C-18.8165 151.335 -18.8165 148.773 -20.3316 147.193C-21.8467 145.613 -24.3032 145.613 -25.8183 147.193C-27.3334 148.773 -27.3334 151.335 -25.8183 152.915C-24.3032 154.495 -21.8467 154.495 -20.3316 152.915Z" fill="#D71C34"/>
<path d="M-7.97717 165.799C-6.7979 164.569 -6.7979 162.575 -7.97717 161.345C-9.15646 160.116 -11.0685 160.116 -12.2477 161.345C-13.427 162.575 -13.427 164.569 -12.2477 165.799C-11.0685 167.029 -9.15646 167.029 -7.97717 165.799Z" fill="#D71C34"/>
<path d="M4.37727 178.683C5.22073 177.803 5.22073 176.377 4.37727 175.498C3.53381 174.618 2.16629 174.618 1.32283 175.498C0.47937 176.377 0.47937 177.803 1.32283 178.683C2.16629 179.563 3.53381 179.563 4.37727 178.683Z" fill="#D71C34"/>
<path d="M16.7317 191.567C17.2394 191.037 17.2393 190.179 16.7317 189.65C16.2241 189.12 15.401 189.12 14.8934 189.65C14.3858 190.179 14.3858 191.037 14.8934 191.567C15.401 192.096 16.2241 192.096 16.7317 191.567Z" fill="#D71C34"/>
<path d="M-112.893 29.3503C-112.386 28.8209 -112.386 27.9625 -112.893 27.4332C-113.401 26.9038 -114.224 26.9038 -114.732 27.4332C-115.239 27.9625 -115.239 28.8209 -114.732 29.3503C-114.224 29.8796 -113.401 29.8797 -112.893 29.3503Z" fill="#D71C34"/>
<path d="M-99.3228 43.5024C-98.4794 42.6228 -98.4794 41.1967 -99.3228 40.3171C-100.166 39.4375 -101.534 39.4375 -102.377 40.3171C-103.221 41.1967 -103.221 42.6228 -102.377 43.5024C-101.534 44.382 -100.166 44.382 -99.3228 43.5024Z" fill="#D71C34"/>
<path d="M-85.7523 57.6546C-84.573 56.4248 -84.573 54.4308 -85.7523 53.201C-86.9315 51.9712 -88.8435 51.9712 -90.0228 53.201C-91.2021 54.4308 -91.2021 56.4248 -90.0228 57.6546C-88.8435 58.8844 -86.9315 58.8844 -85.7523 57.6546Z" fill="#D71C34"/>
<path d="M-72.1817 71.8068C-70.6666 70.2267 -70.6666 67.665 -72.1817 66.0849C-73.6968 64.5049 -76.1533 64.5049 -77.6684 66.0849C-79.1835 67.665 -79.1835 70.2267 -77.6684 71.8068C-76.1533 73.3868 -73.6968 73.3868 -72.1817 71.8068Z" fill="#D71C34"/>
<path d="M-58.6111 85.9589C-56.7602 84.0287 -56.7602 80.8991 -58.6111 78.9689C-60.462 77.0386 -63.463 77.0386 -65.3139 78.9689C-67.1648 80.8991 -67.1648 84.0287 -65.3139 85.9589C-63.463 87.8892 -60.4621 87.8892 -58.6111 85.9589Z" fill="#D71C34"/>
<path d="M-45.0405 100.111C-42.8538 97.8306 -42.8538 94.1333 -45.0405 91.8528C-47.2273 89.5723 -50.7727 89.5723 -52.9595 91.8528C-55.1462 94.1333 -55.1462 97.8306 -52.9595 100.111C-50.7727 102.392 -47.2273 102.392 -45.0405 100.111Z" fill="#D71C34"/>
<path d="M-32.078 113.629C-29.8913 111.349 -29.8913 107.651 -32.078 105.371C-34.2648 103.09 -37.8102 103.09 -39.9969 105.371C-42.1837 107.651 -42.1837 111.349 -39.9969 113.629C-37.8102 115.91 -34.2648 115.91 -32.078 113.629Z" fill="#D71C34"/>
<path d="M-19.7236 126.513C-17.8727 124.583 -17.8727 121.453 -19.7236 119.523C-21.5745 117.593 -24.5755 117.593 -26.4264 119.523C-28.2773 121.453 -28.2773 124.583 -26.4264 126.513C-24.5755 128.443 -21.5745 128.443 -19.7236 126.513Z" fill="#D71C34"/>
<path d="M-7.36913 139.397C-5.85402 137.817 -5.85402 135.255 -7.36913 133.675C-8.88423 132.095 -11.3407 132.095 -12.8558 133.675C-14.3709 135.255 -14.3709 137.817 -12.8558 139.397C-11.3407 140.977 -8.88423 140.977 -7.36913 139.397Z" fill="#D71C34"/>
<path d="M4.98534 152.281C6.16461 151.051 6.16461 149.057 4.98534 147.827C3.80605 146.598 1.89406 146.598 0.714767 147.827C-0.464508 149.057 -0.464508 151.051 0.714767 152.281C1.89406 153.511 3.80605 153.511 4.98534 152.281Z" fill="#D71C34"/>
<path d="M17.3398 165.165C18.1832 164.285 18.1832 162.859 17.3398 161.98C16.4963 161.1 15.1288 161.1 14.2854 161.98C13.4419 162.859 13.4419 164.285 14.2854 165.165C15.1288 166.044 16.4963 166.044 17.3398 165.165Z" fill="#D71C34"/>
<path d="M29.6942 178.049C30.2019 177.519 30.2019 176.661 29.6942 176.132C29.1866 175.602 28.3636 175.602 27.8559 176.132C27.3483 176.661 27.3483 177.519 27.8559 178.049C28.3636 178.578 29.1866 178.578 29.6942 178.049Z" fill="#D71C34"/>
<path d="M-100.03 15.729C-99.5769 15.2566 -99.5769 14.4907 -100.03 14.0183C-100.483 13.5459 -101.217 13.5459 -101.67 14.0183C-102.123 14.4907 -102.123 15.2566 -101.67 15.729C-101.217 16.2014 -100.483 16.2014 -100.03 15.729Z" fill="#D71C34"/>
<path d="M-86.5583 29.7779C-85.8242 29.0123 -85.8242 27.7711 -86.5583 27.0055C-87.2924 26.2399 -88.4827 26.2399 -89.2168 27.0055C-89.9509 27.7711 -89.9509 29.0123 -89.2168 29.7779C-88.4827 30.5435 -87.2924 30.5435 -86.5583 29.7779Z" fill="#D71C34"/>
<path d="M-73.0938 43.8195C-72.0824 42.7648 -72.0824 41.0547 -73.0938 40C-74.1052 38.9453 -75.7449 38.9453 -76.7563 40C-77.7677 41.0547 -77.7677 42.7648 -76.7563 43.8195C-75.7449 44.8742 -74.1052 44.8742 -73.0938 43.8195Z" fill="#D71C34"/>
<path d="M-59.6222 57.8684C-58.3297 56.5205 -58.3297 54.3351 -59.6222 52.9872C-60.9147 51.6393 -63.0103 51.6393 -64.3028 52.9872C-65.5954 54.3351 -65.5954 56.5205 -64.3028 57.8684C-63.0103 59.2163 -60.9147 59.2163 -59.6222 57.8684Z" fill="#D71C34"/>
<path d="M-46.1506 71.9174C-44.5769 70.2762 -44.5769 67.6155 -46.1506 65.9743C-47.7243 64.3332 -50.2757 64.3332 -51.8494 65.9743C-53.4231 67.6155 -53.4231 70.2762 -51.8494 71.9174C-50.2757 73.5585 -47.7243 73.5585 -46.1506 71.9174Z" fill="#D71C34"/>
<path d="M-32.6861 85.9589C-30.8352 84.0287 -30.8352 80.8991 -32.6861 78.9689C-34.537 77.0386 -37.538 77.0386 -39.3889 78.9689C-41.2398 80.8991 -41.2398 84.0287 -39.3889 85.9589C-37.538 87.8892 -34.537 87.8892 -32.6861 85.9589Z" fill="#D71C34"/>
<path d="M-19.7236 99.477C-17.8727 97.5467 -17.8727 94.4172 -19.7236 92.4869C-21.5745 90.5567 -24.5755 90.5567 -26.4264 92.4869C-28.2773 94.4172 -28.2773 97.5467 -26.4264 99.477C-24.5755 101.407 -21.5745 101.407 -19.7236 99.477Z" fill="#D71C34"/>
<path d="M-7.26306 112.472C-5.68939 110.83 -5.68939 108.17 -7.26306 106.528C-8.83675 104.887 -11.3882 104.887 -12.9619 106.528C-14.5355 108.17 -14.5355 110.83 -12.9619 112.472C-11.3882 114.113 -8.83675 114.113 -7.26306 112.472Z" fill="#D71C34"/>
<path d="M5.19038 125.459C6.48291 124.111 6.48291 121.925 5.19038 120.577C3.89786 119.23 1.80226 119.23 0.509735 120.577C-0.782791 121.925 -0.782791 124.111 0.509735 125.459C1.80226 126.807 3.89786 126.807 5.19038 125.459Z" fill="#D71C34"/>
<path d="M17.6438 138.446C18.6552 137.391 18.6552 135.681 17.6438 134.626C16.6324 133.572 14.9927 133.572 13.9813 134.626C12.9699 135.681 12.97 137.391 13.9813 138.446C14.9927 139.501 16.6324 139.501 17.6438 138.446Z" fill="#D71C34"/>
<path d="M30.1043 151.44C30.8385 150.675 30.8385 149.434 30.1043 148.668C29.3702 147.902 28.1799 147.902 27.4458 148.668C26.7117 149.434 26.7117 150.675 27.4458 151.44C28.1799 152.206 29.3702 152.206 30.1043 151.44Z" fill="#D71C34"/>
<path d="M42.5578 164.428C43.0107 163.955 43.0107 163.189 42.5578 162.717C42.1048 162.244 41.3704 162.244 40.9174 162.717C40.4645 163.189 40.4644 163.955 40.9174 164.428C41.3704 164.9 42.1048 164.9 42.5578 164.428Z" fill="#D71C34"/>
<path d="M-73.8008 16.046C-73.18 15.3986 -73.1799 14.3488 -73.8008 13.7013C-74.4217 13.0538 -75.4284 13.0538 -76.0492 13.7013C-76.6701 14.3488 -76.6701 15.3985 -76.0492 16.046C-75.4284 16.6935 -74.4217 16.6935 -73.8008 16.046Z" fill="#D71C34"/>
<path d="M-60.4353 29.9844C-59.5918 29.1048 -59.5918 27.6786 -60.4353 26.799C-61.2788 25.9194 -62.6463 25.9194 -63.4897 26.799C-64.3332 27.6786 -64.3332 29.1048 -63.4897 29.9844C-62.6463 30.864 -61.2788 30.864 -60.4353 29.9844Z" fill="#D71C34"/>
<path d="M-47.0627 43.9301C-45.9927 42.8143 -45.9927 41.0052 -47.0627 39.8894C-48.1326 38.7736 -49.8674 38.7736 -50.9373 39.8894C-52.0072 41.0052 -52.0072 42.8143 -50.9373 43.9301C-49.8674 45.0459 -48.1326 45.0459 -47.0627 43.9301Z" fill="#D71C34"/>
<path d="M-33.6972 57.8684C-32.4046 56.5205 -32.4046 54.3351 -33.6972 52.9872C-34.9897 51.6393 -37.0853 51.6393 -38.3778 52.9872C-39.6703 54.3351 -39.6703 56.5205 -38.3778 57.8684C-37.0853 59.2163 -34.9897 59.2163 -33.6972 57.8684Z" fill="#D71C34"/>
<path d="M-20.3316 71.8068C-18.8165 70.2267 -18.8165 67.665 -20.3316 66.0849C-21.8467 64.5049 -24.3032 64.5049 -25.8183 66.0849C-27.3334 67.665 -27.3334 70.2267 -25.8183 71.8068C-24.3032 73.3868 -21.8467 73.3868 -20.3316 71.8068Z" fill="#D71C34"/>
<path d="M-7.36913 85.3248C-5.85402 83.7448 -5.85402 81.183 -7.36913 79.603C-8.88423 78.023 -11.3407 78.023 -12.8558 79.603C-14.3709 81.183 -14.3709 83.7448 -12.8558 85.3248C-11.3407 86.9048 -8.88423 86.9049 -7.36913 85.3248Z" fill="#D71C34"/>
<path d="M5.19038 98.4226C6.48291 97.0747 6.48291 94.8893 5.19038 93.5413C3.89786 92.1934 1.80226 92.1934 0.509735 93.5413C-0.782791 94.8893 -0.782791 97.0747 0.509735 98.4226C1.80226 99.7705 3.89786 99.7705 5.19038 98.4226Z" fill="#D71C34"/>
<path d="M17.7499 111.52C18.8198 110.405 18.8198 108.595 17.7499 107.48C16.6799 106.364 14.9452 106.364 13.8752 107.48C12.8053 108.595 12.8053 110.405 13.8752 111.52C14.9452 112.636 16.6799 112.636 17.7499 111.52Z" fill="#D71C34"/>
<path d="M30.3023 124.611C31.1458 123.731 31.1458 122.305 30.3023 121.425C29.4588 120.546 28.0913 120.546 27.2478 121.425C26.4044 122.305 26.4044 123.731 27.2479 124.611C28.0913 125.49 29.4588 125.49 30.3023 124.611Z" fill="#D71C34"/>
<path d="M42.8618 137.708C43.4827 137.061 43.4827 136.011 42.8618 135.364C42.2409 134.716 41.2343 134.716 40.6134 135.364C39.9925 136.011 39.9925 137.061 40.6134 137.708C41.2343 138.356 42.2409 138.356 42.8618 137.708Z" fill="#D71C34"/>
<path d="M-61.0434 2.31415C-60.5357 1.78476 -60.5357 0.926448 -61.0434 0.397054C-61.551 -0.13234 -62.374 -0.132349 -62.8817 0.397046C-63.3893 0.92644 -63.3893 1.78476 -62.8817 2.31415C-62.374 2.84355 -61.551 2.84354 -61.0434 2.31415Z" fill="#D71C34"/>
<path d="M-47.7768 16.1493C-47.1013 15.4448 -47.1013 14.3025 -47.7768 13.598C-48.4524 12.8935 -49.5476 12.8935 -50.2232 13.598C-50.8987 14.3025 -50.8988 15.4448 -50.2232 16.1493C-49.5477 16.8538 -48.4524 16.8538 -47.7768 16.1493Z" fill="#D71C34"/>
<path d="M-34.5103 29.9844C-33.6668 29.1048 -33.6668 27.6786 -34.5103 26.799C-35.3537 25.9194 -36.7212 25.9194 -37.5647 26.799C-38.4082 27.6786 -38.4082 29.1048 -37.5647 29.9844C-36.7212 30.864 -35.3537 30.864 -34.5103 29.9844Z" fill="#D71C34"/>
<path d="M-21.2437 43.8195C-20.2324 42.7648 -20.2324 41.0547 -21.2437 40C-22.2551 38.9453 -23.8949 38.9453 -24.9062 40C-25.9176 41.0547 -25.9176 42.7648 -24.9062 43.8195C-23.8949 44.8742 -22.2551 44.8742 -21.2437 43.8195Z" fill="#D71C34"/>
<path d="M-7.97717 57.6546C-6.7979 56.4248 -6.7979 54.4308 -7.97717 53.201C-9.15646 51.9712 -11.0685 51.9712 -12.2477 53.201C-13.427 54.4308 -13.427 56.4248 -12.2477 57.6546C-11.0685 58.8844 -9.15646 58.8844 -7.97717 57.6546Z" fill="#D71C34"/>
<path d="M4.98534 71.1726C6.16461 69.9428 6.16461 67.9489 4.98534 66.7191C3.80605 65.4892 1.89406 65.4892 0.714767 66.7191C-0.464508 67.9489 -0.464508 69.9428 0.714767 71.1726C1.89406 72.4025 3.80605 72.4025 4.98534 71.1726Z" fill="#D71C34"/>
<path d="M17.6438 84.3736C18.6552 83.3189 18.6552 81.6089 17.6438 80.5542C16.6324 79.4995 14.9927 79.4995 13.9813 80.5542C12.97 81.6089 12.9699 83.3189 13.9813 84.3736C14.9927 85.4284 16.6324 85.4283 17.6438 84.3736Z" fill="#D71C34"/>
<path d="M30.3023 97.5746C31.1458 96.695 31.1458 95.2689 30.3023 94.3893C29.4588 93.5097 28.0913 93.5097 27.2479 94.3893C26.4044 95.2689 26.4044 96.695 27.2478 97.5746C28.0913 98.4542 29.4588 98.4542 30.3023 97.5746Z" fill="#D71C34"/>
<path d="M42.9608 110.776C43.6363 110.071 43.6363 108.929 42.9608 108.224C42.2852 107.52 41.19 107.52 40.5144 108.224C39.8389 108.929 39.8389 110.071 40.5144 110.776C41.19 111.48 42.2852 111.48 42.9608 110.776Z" fill="#D71C34"/>
<path d="M55.6193 123.977C56.1269 123.447 56.1269 122.589 55.6193 122.06C55.1116 121.53 54.2886 121.53 53.7809 122.059C53.2733 122.589 53.2733 123.447 53.7809 123.977C54.2886 124.506 55.1116 124.506 55.6193 123.977Z" fill="#D71C34"/>
<path d="M-35.1183 2.31415C-34.6107 1.78476 -34.6107 0.926438 -35.1183 0.397044C-35.626 -0.13235 -36.449 -0.132347 -36.9567 0.397047C-37.4643 0.926441 -37.4643 1.78476 -36.9567 2.31415C-36.449 2.84355 -35.626 2.84355 -35.1183 2.31415Z" fill="#D71C34"/>
<path d="M-21.9508 16.046C-21.3299 15.3985 -21.3299 14.3488 -21.9508 13.7013C-22.5717 13.0538 -23.5783 13.0538 -24.1992 13.7013C-24.8201 14.3488 -24.8201 15.3985 -24.1992 16.046C-23.5783 16.6935 -22.5717 16.6935 -21.9508 16.046Z" fill="#D71C34"/>
<path d="M-8.78322 29.7779C-8.04909 29.0123 -8.04909 27.7711 -8.7832 27.0055C-9.51732 26.2399 -10.7076 26.2399 -11.4417 27.0055C-12.1758 27.7711 -12.1758 29.0123 -11.4417 29.7779C-10.7076 30.5435 -9.51733 30.5435 -8.78322 29.7779Z" fill="#D71C34"/>
<path d="M4.37727 43.5024C5.22073 42.6228 5.22073 41.1967 4.37727 40.3171C3.53381 39.4375 2.16629 39.4375 1.32283 40.3171C0.47937 41.1967 0.47937 42.6228 1.32283 43.5024C2.16629 44.382 3.53381 44.382 4.37727 43.5024Z" fill="#D71C34"/>
<path d="M17.3398 57.0205C18.1832 56.1409 18.1832 54.7147 17.3398 53.8351C16.4963 52.9555 15.1288 52.9555 14.2854 53.8351C13.4419 54.7147 13.4419 56.1409 14.2854 57.0205C15.1288 57.9001 16.4963 57.9001 17.3398 57.0205Z" fill="#D71C34"/>
<path d="M30.1043 70.3321C30.8385 69.5665 30.8385 68.3252 30.1043 67.5596C29.3702 66.7941 28.1799 66.7941 27.4458 67.5596C26.7117 68.3252 26.7117 69.5665 27.4458 70.3321C28.1799 71.0977 29.3702 71.0977 30.1043 70.3321Z" fill="#D71C34"/>
<path d="M42.8618 83.6363C43.4827 82.9888 43.4827 81.939 42.8618 81.2915C42.2409 80.644 41.2343 80.644 40.6134 81.2915C39.9925 81.939 39.9925 82.9888 40.6134 83.6363C41.2343 84.2838 42.2409 84.2838 42.8618 83.6363Z" fill="#D71C34"/>
<path d="M55.6193 96.9405C56.1269 96.4111 56.1269 95.5528 55.6193 95.0234C55.1116 94.494 54.2886 94.494 53.7809 95.0234C53.2733 95.5528 53.2733 96.4111 53.7809 96.9405C54.2886 97.4699 55.1116 97.4699 55.6193 96.9405Z" fill="#D71C34"/>
<path d="M3.67023 15.729C4.1232 15.2566 4.1232 14.4907 3.67023 14.0183C3.21725 13.5459 2.48285 13.5459 2.02988 14.0183C1.5769 14.4907 1.5769 15.2566 2.02988 15.729C2.48285 16.2014 3.21725 16.2014 3.67023 15.729Z" fill="#D71C34"/>
<path d="M16.7317 29.3503C17.2393 28.8209 17.2394 27.9625 16.7317 27.4332C16.2241 26.9038 15.401 26.9038 14.8934 27.4332C14.3858 27.9625 14.3858 28.8209 14.8934 29.3503C15.401 29.8796 16.2241 29.8797 16.7317 29.3503Z" fill="#D71C34"/>
<path d="M29.6942 42.8683C30.2019 42.3389 30.2019 41.4806 29.6942 40.9512C29.1866 40.4218 28.3636 40.4218 27.8559 40.9512C27.3483 41.4806 27.3483 42.3389 27.8559 42.8683C28.3636 43.3977 29.1866 43.3977 29.6942 42.8683Z" fill="#D71C34"/>
<path d="M42.5578 56.2831C43.0107 55.8108 43.0107 55.0449 42.5578 54.5725C42.1048 54.1001 41.3704 54.1001 40.9174 54.5725C40.4644 55.0449 40.4645 55.8107 40.9174 56.2831C41.3704 56.7555 42.1048 56.7555 42.5578 56.2831Z" fill="#D71C34"/>
</svg>
